ISO-10303-21;
HEADER;
/* Generated by software containing ST-Developer
 * from STEP Tools, Inc. (www.steptools.com) 
 */

FILE_DESCRIPTION(
/* description */ (''),
/* implementation_level */ '2;1');

FILE_NAME(
/* name */ 'Pre-Hybrid.step',
/* time_stamp */ '2026-09-26T12:28:17-04:00',
/* author */ (''),
/* organization */ (''),
/* preprocessor_version */ 'ST-DEVELOPER v20.2',
/* originating_system */ 'Autodesk Translation Framework v15.15.0.0',
/* authorisation */ '');

FILE_SCHEMA (('AUTOMOTIVE_DESIGN { 1 0 10303 214 3 1 1 }'));
ENDSEC;

DATA;
#10=MECHANICAL_DESIGN_GEOMETRIC_PRESENTATION_REPRESENTATION('',(#13),#1922);
#11=SHAPE_REPRESENTATION_RELATIONSHIP('SRR','None',#1929,#12);
#12=ADVANCED_BREP_SHAPE_REPRESENTATION('',(#14),#1921);
#13=STYLED_ITEM('',(#1939),#14);
#14=MANIFOLD_SOLID_BREP('Body1',#1130);
#15=FACE_BOUND('',#134,.T.);
#16=FACE_BOUND('',#163,.T.);
#17=PLANE('',#1147);
#18=PLANE('',#1148);
#19=PLANE('',#1149);
#20=PLANE('',#1153);
#21=PLANE('',#1154);
#22=PLANE('',#1155);
#23=PLANE('',#1157);
#24=PLANE('',#1158);
#25=PLANE('',#1159);
#26=PLANE('',#1162);
#27=PLANE('',#1165);
#28=PLANE('',#1168);
#29=PLANE('',#1172);
#30=PLANE('',#1173);
#31=PLANE('',#1175);
#32=PLANE('',#1190);
#33=PLANE('',#1191);
#34=PLANE('',#1192);
#35=PLANE('',#1207);
#36=PLANE('',#1208);
#37=PLANE('',#1209);
#38=PLANE('',#1212);
#39=PLANE('',#1213);
#40=PLANE('',#1214);
#41=PLANE('',#1215);
#42=PLANE('',#1216);
#43=PLANE('',#1217);
#44=PLANE('',#1219);
#45=PLANE('',#1221);
#46=PLANE('',#1223);
#47=PLANE('',#1226);
#48=PLANE('',#1227);
#49=PLANE('',#1228);
#50=PLANE('',#1229);
#51=PLANE('',#1232);
#52=PLANE('',#1234);
#53=PLANE('',#1239);
#54=PLANE('',#1242);
#55=PLANE('',#1245);
#56=PLANE('',#1246);
#57=PLANE('',#1251);
#58=PLANE('',#1252);
#59=FACE_OUTER_BOUND('',#116,.T.);
#60=FACE_OUTER_BOUND('',#117,.T.);
#61=FACE_OUTER_BOUND('',#118,.T.);
#62=FACE_OUTER_BOUND('',#119,.T.);
#63=FACE_OUTER_BOUND('',#120,.T.);
#64=FACE_OUTER_BOUND('',#121,.T.);
#65=FACE_OUTER_BOUND('',#122,.T.);
#66=FACE_OUTER_BOUND('',#123,.T.);
#67=FACE_OUTER_BOUND('',#124,.T.);
#68=FACE_OUTER_BOUND('',#125,.T.);
#69=FACE_OUTER_BOUND('',#126,.T.);
#70=FACE_OUTER_BOUND('',#127,.T.);
#71=FACE_OUTER_BOUND('',#128,.T.);
#72=FACE_OUTER_BOUND('',#129,.T.);
#73=FACE_OUTER_BOUND('',#130,.T.);
#74=FACE_OUTER_BOUND('',#131,.T.);
#75=FACE_OUTER_BOUND('',#132,.T.);
#76=FACE_OUTER_BOUND('',#133,.T.);
#77=FACE_OUTER_BOUND('',#135,.T.);
#78=FACE_OUTER_BOUND('',#136,.T.);
#79=FACE_OUTER_BOUND('',#137,.T.);
#80=FACE_OUTER_BOUND('',#138,.T.);
#81=FACE_OUTER_BOUND('',#139,.T.);
#82=FACE_OUTER_BOUND('',#140,.T.);
#83=FACE_OUTER_BOUND('',#141,.T.);
#84=FACE_OUTER_BOUND('',#142,.T.);
#85=FACE_OUTER_BOUND('',#143,.T.);
#86=FACE_OUTER_BOUND('',#144,.T.);
#87=FACE_OUTER_BOUND('',#145,.T.);
#88=FACE_OUTER_BOUND('',#146,.T.);
#89=FACE_OUTER_BOUND('',#147,.T.);
#90=FACE_OUTER_BOUND('',#148,.T.);
#91=FACE_OUTER_BOUND('',#149,.T.);
#92=FACE_OUTER_BOUND('',#150,.T.);
#93=FACE_OUTER_BOUND('',#151,.T.);
#94=FACE_OUTER_BOUND('',#152,.T.);
#95=FACE_OUTER_BOUND('',#153,.T.);
#96=FACE_OUTER_BOUND('',#154,.T.);
#97=FACE_OUTER_BOUND('',#155,.T.);
#98=FACE_OUTER_BOUND('',#156,.T.);
#99=FACE_OUTER_BOUND('',#157,.T.);
#100=FACE_OUTER_BOUND('',#158,.T.);
#101=FACE_OUTER_BOUND('',#159,.T.);
#102=FACE_OUTER_BOUND('',#160,.T.);
#103=FACE_OUTER_BOUND('',#161,.T.);
#104=FACE_OUTER_BOUND('',#162,.T.);
#105=FACE_OUTER_BOUND('',#164,.T.);
#106=FACE_OUTER_BOUND('',#165,.T.);
#107=FACE_OUTER_BOUND('',#166,.T.);
#108=FACE_OUTER_BOUND('',#167,.T.);
#109=FACE_OUTER_BOUND('',#168,.T.);
#110=FACE_OUTER_BOUND('',#169,.T.);
#111=FACE_OUTER_BOUND('',#170,.T.);
#112=FACE_OUTER_BOUND('',#171,.T.);
#113=FACE_OUTER_BOUND('',#172,.T.);
#114=FACE_OUTER_BOUND('',#173,.T.);
#115=FACE_OUTER_BOUND('',#174,.T.);
#116=EDGE_LOOP('',(#728,#729,#730,#731));
#117=EDGE_LOOP('',(#732,#733,#734,#735));
#118=EDGE_LOOP('',(#736,#737,#738,#739));
#119=EDGE_LOOP('',(#740,#741,#742,#743));
#120=EDGE_LOOP('',(#744,#745,#746,#747));
#121=EDGE_LOOP('',(#748,#749,#750,#751));
#122=EDGE_LOOP('',(#752,#753,#754,#755));
#123=EDGE_LOOP('',(#756,#757,#758,#759,#760,#761,#762,#763));
#124=EDGE_LOOP('',(#764,#765,#766,#767));
#125=EDGE_LOOP('',(#768,#769,#770,#771));
#126=EDGE_LOOP('',(#772,#773,#774,#775));
#127=EDGE_LOOP('',(#776,#777,#778,#779));
#128=EDGE_LOOP('',(#780,#781,#782,#783));
#129=EDGE_LOOP('',(#784,#785,#786,#787));
#130=EDGE_LOOP('',(#788,#789,#790,#791));
#131=EDGE_LOOP('',(#792,#793,#794,#795));
#132=EDGE_LOOP('',(#796,#797,#798,#799));
#133=EDGE_LOOP('',(#800,#801,#802,#803,#804,#805,#806,#807,#808,#809,#810,
#811,#812,#813,#814,#815,#816,#817,#818,#819,#820,#821,#822,#823,#824,#825,
#826,#827,#828,#829,#830,#831));
#134=EDGE_LOOP('',(#832));
#135=EDGE_LOOP('',(#833,#834,#835,#836));
#136=EDGE_LOOP('',(#837,#838,#839,#840));
#137=EDGE_LOOP('',(#841,#842,#843,#844));
#138=EDGE_LOOP('',(#845,#846,#847,#848,#849,#850));
#139=EDGE_LOOP('',(#851,#852,#853,#854,#855,#856,#857,#858,#859,#860,#861,
#862,#863,#864,#865,#866,#867,#868,#869,#870));
#140=EDGE_LOOP('',(#871,#872,#873,#874,#875,#876,#877,#878,#879,#880,#881,
#882,#883,#884,#885,#886,#887,#888,#889,#890));
#141=EDGE_LOOP('',(#891,#892,#893,#894));
#142=EDGE_LOOP('',(#895,#896,#897,#898));
#143=EDGE_LOOP('',(#899,#900,#901,#902));
#144=EDGE_LOOP('',(#903,#904,#905,#906));
#145=EDGE_LOOP('',(#907,#908,#909,#910));
#146=EDGE_LOOP('',(#911,#912,#913,#914));
#147=EDGE_LOOP('',(#915,#916,#917,#918));
#148=EDGE_LOOP('',(#919,#920,#921,#922,#923,#924,#925,#926));
#149=EDGE_LOOP('',(#927,#928,#929,#930));
#150=EDGE_LOOP('',(#931,#932,#933,#934));
#151=EDGE_LOOP('',(#935,#936,#937,#938));
#152=EDGE_LOOP('',(#939,#940,#941,#942));
#153=EDGE_LOOP('',(#943,#944,#945,#946));
#154=EDGE_LOOP('',(#947,#948,#949,#950));
#155=EDGE_LOOP('',(#951,#952,#953,#954));
#156=EDGE_LOOP('',(#955,#956,#957,#958));
#157=EDGE_LOOP('',(#959,#960,#961,#962));
#158=EDGE_LOOP('',(#963,#964,#965,#966));
#159=EDGE_LOOP('',(#967,#968,#969,#970));
#160=EDGE_LOOP('',(#971,#972,#973,#974));
#161=EDGE_LOOP('',(#975,#976,#977,#978,#979,#980));
#162=EDGE_LOOP('',(#981,#982,#983,#984,#985,#986,#987,#988));
#163=EDGE_LOOP('',(#989));
#164=EDGE_LOOP('',(#990,#991,#992,#993));
#165=EDGE_LOOP('',(#994,#995,#996,#997,#998,#999));
#166=EDGE_LOOP('',(#1000,#1001,#1002,#1003));
#167=EDGE_LOOP('',(#1004,#1005,#1006,#1007,#1008,#1009,#1010,#1011));
#168=EDGE_LOOP('',(#1012,#1013,#1014,#1015,#1016,#1017,#1018,#1019,#1020,
#1021));
#169=EDGE_LOOP('',(#1022,#1023,#1024,#1025));
#170=EDGE_LOOP('',(#1026,#1027,#1028,#1029,#1030,#1031));
#171=EDGE_LOOP('',(#1032,#1033,#1034,#1035,#1036,#1037,#1038,#1039,#1040,
#1041));
#172=EDGE_LOOP('',(#1042,#1043,#1044,#1045));
#173=EDGE_LOOP('',(#1046,#1047,#1048,#1049,#1050,#1051,#1052,#1053));
#174=EDGE_LOOP('',(#1054,#1055,#1056,#1057));
#175=LINE('',#1592,#288);
#176=LINE('',#1595,#289);
#177=LINE('',#1598,#290);
#178=LINE('',#1600,#291);
#179=LINE('',#1601,#292);
#180=LINE('',#1604,#293);
#181=LINE('',#1606,#294);
#182=LINE('',#1607,#295);
#183=LINE('',#1610,#296);
#184=LINE('',#1612,#297);
#185=LINE('',#1613,#298);
#186=LINE('',#1618,#299);
#187=LINE('',#1622,#300);
#188=LINE('',#1624,#301);
#189=LINE('',#1625,#302);
#190=LINE('',#1628,#303);
#191=LINE('',#1630,#304);
#192=LINE('',#1631,#305);
#193=LINE('',#1637,#306);
#194=LINE('',#1639,#307);
#195=LINE('',#1641,#308);
#196=LINE('',#1642,#309);
#197=LINE('',#1646,#310);
#198=LINE('',#1648,#311);
#199=LINE('',#1650,#312);
#200=LINE('',#1651,#313);
#201=LINE('',#1659,#314);
#202=LINE('',#1665,#315);
#203=LINE('',#1670,#316);
#204=LINE('',#1672,#317);
#205=LINE('',#1674,#318);
#206=LINE('',#1675,#319);
#207=LINE('',#1681,#320);
#208=LINE('',#1684,#321);
#209=LINE('',#1686,#322);
#210=LINE('',#1687,#323);
#211=LINE('',#1694,#324);
#212=LINE('',#1698,#325);
#213=LINE('',#1702,#326);
#214=LINE('',#1706,#327);
#215=LINE('',#1710,#328);
#216=LINE('',#1714,#329);
#217=LINE('',#1716,#330);
#218=LINE('',#1718,#331);
#219=LINE('',#1722,#332);
#220=LINE('',#1727,#333);
#221=LINE('',#1731,#334);
#222=LINE('',#1737,#335);
#223=LINE('',#1740,#336);
#224=LINE('',#1743,#337);
#225=LINE('',#1744,#338);
#226=LINE('',#1747,#339);
#227=LINE('',#1749,#340);
#228=LINE('',#1750,#341);
#229=LINE('',#1754,#342);
#230=LINE('',#1758,#343);
#231=LINE('',#1761,#344);
#232=LINE('',#1763,#345);
#233=LINE('',#1766,#346);
#234=LINE('',#1769,#347);
#235=LINE('',#1773,#348);
#236=LINE('',#1777,#349);
#237=LINE('',#1781,#350);
#238=LINE('',#1785,#351);
#239=LINE('',#1788,#352);
#240=LINE('',#1790,#353);
#241=LINE('',#1793,#354);
#242=LINE('',#1798,#355);
#243=LINE('',#1799,#356);
#244=LINE('',#1802,#357);
#245=LINE('',#1803,#358);
#246=LINE('',#1806,#359);
#247=LINE('',#1807,#360);
#248=LINE('',#1810,#361);
#249=LINE('',#1811,#362);
#250=LINE('',#1815,#363);
#251=LINE('',#1817,#364);
#252=LINE('',#1819,#365);
#253=LINE('',#1823,#366);
#254=LINE('',#1825,#367);
#255=LINE('',#1826,#368);
#256=LINE('',#1829,#369);
#257=LINE('',#1831,#370);
#258=LINE('',#1832,#371);
#259=LINE('',#1837,#372);
#260=LINE('',#1842,#373);
#261=LINE('',#1845,#374);
#262=LINE('',#1846,#375);
#263=LINE('',#1849,#376);
#264=LINE('',#1852,#377);
#265=LINE('',#1856,#378);
#266=LINE('',#1857,#379);
#267=LINE('',#1860,#380);
#268=LINE('',#1861,#381);
#269=LINE('',#1865,#382);
#270=LINE('',#1869,#383);
#271=LINE('',#1872,#384);
#272=LINE('',#1875,#385);
#273=LINE('',#1877,#386);
#274=LINE('',#1880,#387);
#275=LINE('',#1884,#388);
#276=LINE('',#1887,#389);
#277=LINE('',#1889,#390);
#278=LINE('',#1890,#391);
#279=LINE('',#1893,#392);
#280=LINE('',#1897,#393);
#281=LINE('',#1898,#394);
#282=LINE('',#1904,#395);
#283=LINE('',#1906,#396);
#284=LINE('',#1907,#397);
#285=LINE('',#1911,#398);
#286=LINE('',#1914,#399);
#287=LINE('',#1917,#400);
#288=VECTOR('',#1259,10.);
#289=VECTOR('',#1262,10.);
#290=VECTOR('',#1265,10.);
#291=VECTOR('',#1266,10.);
#292=VECTOR('',#1267,10.);
#293=VECTOR('',#1270,10.);
#294=VECTOR('',#1271,10.);
#295=VECTOR('',#1272,10.);
#296=VECTOR('',#1275,10.);
#297=VECTOR('',#1276,10.);
#298=VECTOR('',#1277,10.);
#299=VECTOR('',#1282,10.);
#300=VECTOR('',#1287,10.);
#301=VECTOR('',#1288,10.);
#302=VECTOR('',#1289,10.);
#303=VECTOR('',#1292,10.);
#304=VECTOR('',#1293,10.);
#305=VECTOR('',#1294,10.);
#306=VECTOR('',#1301,10.);
#307=VECTOR('',#1302,10.);
#308=VECTOR('',#1303,10.);
#309=VECTOR('',#1304,10.);
#310=VECTOR('',#1307,10.);
#311=VECTOR('',#1308,10.);
#312=VECTOR('',#1309,10.);
#313=VECTOR('',#1310,10.);
#314=VECTOR('',#1321,10.);
#315=VECTOR('',#1328,10.);
#316=VECTOR('',#1333,10.);
#317=VECTOR('',#1334,10.);
#318=VECTOR('',#1335,10.);
#319=VECTOR('',#1336,10.);
#320=VECTOR('',#1343,10.);
#321=VECTOR('',#1346,10.);
#322=VECTOR('',#1347,10.);
#323=VECTOR('',#1348,10.);
#324=VECTOR('',#1357,10.);
#325=VECTOR('',#1360,10.);
#326=VECTOR('',#1363,10.);
#327=VECTOR('',#1366,10.);
#328=VECTOR('',#1369,10.);
#329=VECTOR('',#1372,10.);
#330=VECTOR('',#1373,10.);
#331=VECTOR('',#1374,10.);
#332=VECTOR('',#1377,10.);
#333=VECTOR('',#1382,10.);
#334=VECTOR('',#1385,10.);
#335=VECTOR('',#1392,10.);
#336=VECTOR('',#1395,10.);
#337=VECTOR('',#1398,10.);
#338=VECTOR('',#1399,10.);
#339=VECTOR('',#1402,10.);
#340=VECTOR('',#1403,10.);
#341=VECTOR('',#1404,10.);
#342=VECTOR('',#1409,10.);
#343=VECTOR('',#1414,10.);
#344=VECTOR('',#1417,10.);
#345=VECTOR('',#1418,10.);
#346=VECTOR('',#1421,10.);
#347=VECTOR('',#1424,10.);
#348=VECTOR('',#1427,10.);
#349=VECTOR('',#1430,10.);
#350=VECTOR('',#1433,10.);
#351=VECTOR('',#1436,10.);
#352=VECTOR('',#1439,10.);
#353=VECTOR('',#1440,10.);
#354=VECTOR('',#1443,10.);
#355=VECTOR('',#1448,10.);
#356=VECTOR('',#1449,10.);
#357=VECTOR('',#1452,10.);
#358=VECTOR('',#1453,10.);
#359=VECTOR('',#1456,10.);
#360=VECTOR('',#1457,10.);
#361=VECTOR('',#1460,10.);
#362=VECTOR('',#1461,10.);
#363=VECTOR('',#1466,10.);
#364=VECTOR('',#1469,10.);
#365=VECTOR('',#1472,10.);
#366=VECTOR('',#1477,10.);
#367=VECTOR('',#1478,10.);
#368=VECTOR('',#1479,10.);
#369=VECTOR('',#1482,10.);
#370=VECTOR('',#1483,10.);
#371=VECTOR('',#1484,10.);
#372=VECTOR('',#1491,10.);
#373=VECTOR('',#1498,10.);
#374=VECTOR('',#1501,10.);
#375=VECTOR('',#1502,10.);
#376=VECTOR('',#1505,10.);
#377=VECTOR('',#1510,10.);
#378=VECTOR('',#1515,10.);
#379=VECTOR('',#1516,10.);
#380=VECTOR('',#1519,10.);
#381=VECTOR('',#1520,10.);
#382=VECTOR('',#1525,10.);
#383=VECTOR('',#1530,10.);
#384=VECTOR('',#1533,10.);
#385=VECTOR('',#1536,10.);
#386=VECTOR('',#1537,10.);
#387=VECTOR('',#1540,10.);
#388=VECTOR('',#1545,4.255);
#389=VECTOR('',#1548,10.);
#390=VECTOR('',#1549,10.);
#391=VECTOR('',#1550,10.);
#392=VECTOR('',#1553,10.);
#393=VECTOR('',#1558,10.);
#394=VECTOR('',#1559,10.);
#395=VECTOR('',#1568,10.);
#396=VECTOR('',#1569,10.);
#397=VECTOR('',#1570,10.);
#398=VECTOR('',#1575,10.);
#399=VECTOR('',#1578,10.);
#400=VECTOR('',#1583,10.);
#401=CIRCLE('',#1145,6.7);
#402=CIRCLE('',#1146,6.7);
#403=CIRCLE('',#1151,6.7);
#404=CIRCLE('',#1152,6.7);
#405=CIRCLE('',#1156,9.35);
#406=CIRCLE('',#1160,12.5);
#407=CIRCLE('',#1161,9.35);
#408=CIRCLE('',#1163,9.35);
#409=CIRCLE('',#1164,12.5);
#410=CIRCLE('',#1166,12.5);
#411=CIRCLE('',#1167,9.35);
#412=CIRCLE('',#1170,8.35);
#413=CIRCLE('',#1171,8.35);
#414=CIRCLE('',#1174,9.35);
#415=CIRCLE('',#1176,9.35);
#416=CIRCLE('',#1177,8.35);
#417=CIRCLE('',#1178,9.35);
#418=CIRCLE('',#1179,8.35);
#419=CIRCLE('',#1180,9.35);
#420=CIRCLE('',#1181,6.7);
#421=CIRCLE('',#1182,6.7);
#422=CIRCLE('',#1183,9.35);
#423=CIRCLE('',#1184,9.35);
#424=CIRCLE('',#1185,8.35);
#425=CIRCLE('',#1186,9.35);
#426=CIRCLE('',#1187,4.255);
#427=CIRCLE('',#1189,8.35);
#428=CIRCLE('',#1193,12.5);
#429=CIRCLE('',#1194,9.35);
#430=CIRCLE('',#1196,9.35);
#431=CIRCLE('',#1197,9.35);
#432=CIRCLE('',#1199,9.35);
#433=CIRCLE('',#1200,9.35);
#434=CIRCLE('',#1201,9.35);
#435=CIRCLE('',#1202,9.35);
#436=CIRCLE('',#1203,9.35);
#437=CIRCLE('',#1204,9.35);
#438=CIRCLE('',#1206,6.7);
#439=CIRCLE('',#1211,6.7);
#440=CIRCLE('',#1218,12.5);
#441=CIRCLE('',#1220,12.5);
#442=CIRCLE('',#1222,12.5);
#443=CIRCLE('',#1225,8.35);
#444=CIRCLE('',#1231,8.35);
#445=CIRCLE('',#1233,12.5);
#446=CIRCLE('',#1235,8.45);
#447=CIRCLE('',#1236,8.45);
#448=CIRCLE('',#1237,4.255);
#449=CIRCLE('',#1241,8.45);
#450=CIRCLE('',#1244,12.5);
#451=CIRCLE('',#1248,12.5);
#452=CIRCLE('',#1250,8.45);
#453=VERTEX_POINT('',#1588);
#454=VERTEX_POINT('',#1589);
#455=VERTEX_POINT('',#1591);
#456=VERTEX_POINT('',#1593);
#457=VERTEX_POINT('',#1597);
#458=VERTEX_POINT('',#1599);
#459=VERTEX_POINT('',#1603);
#460=VERTEX_POINT('',#1605);
#461=VERTEX_POINT('',#1609);
#462=VERTEX_POINT('',#1611);
#463=VERTEX_POINT('',#1615);
#464=VERTEX_POINT('',#1617);
#465=VERTEX_POINT('',#1621);
#466=VERTEX_POINT('',#1623);
#467=VERTEX_POINT('',#1627);
#468=VERTEX_POINT('',#1629);
#469=VERTEX_POINT('',#1635);
#470=VERTEX_POINT('',#1636);
#471=VERTEX_POINT('',#1638);
#472=VERTEX_POINT('',#1640);
#473=VERTEX_POINT('',#1644);
#474=VERTEX_POINT('',#1645);
#475=VERTEX_POINT('',#1647);
#476=VERTEX_POINT('',#1649);
#477=VERTEX_POINT('',#1656);
#478=VERTEX_POINT('',#1658);
#479=VERTEX_POINT('',#1662);
#480=VERTEX_POINT('',#1664);
#481=VERTEX_POINT('',#1668);
#482=VERTEX_POINT('',#1669);
#483=VERTEX_POINT('',#1671);
#484=VERTEX_POINT('',#1673);
#485=VERTEX_POINT('',#1677);
#486=VERTEX_POINT('',#1679);
#487=VERTEX_POINT('',#1683);
#488=VERTEX_POINT('',#1685);
#489=VERTEX_POINT('',#1691);
#490=VERTEX_POINT('',#1693);
#491=VERTEX_POINT('',#1695);
#492=VERTEX_POINT('',#1697);
#493=VERTEX_POINT('',#1699);
#494=VERTEX_POINT('',#1701);
#495=VERTEX_POINT('',#1703);
#496=VERTEX_POINT('',#1705);
#497=VERTEX_POINT('',#1707);
#498=VERTEX_POINT('',#1709);
#499=VERTEX_POINT('',#1711);
#500=VERTEX_POINT('',#1713);
#501=VERTEX_POINT('',#1715);
#502=VERTEX_POINT('',#1717);
#503=VERTEX_POINT('',#1719);
#504=VERTEX_POINT('',#1721);
#505=VERTEX_POINT('',#1724);
#506=VERTEX_POINT('',#1726);
#507=VERTEX_POINT('',#1728);
#508=VERTEX_POINT('',#1730);
#509=VERTEX_POINT('',#1733);
#510=VERTEX_POINT('',#1736);
#511=VERTEX_POINT('',#1738);
#512=VERTEX_POINT('',#1742);
#513=VERTEX_POINT('',#1746);
#514=VERTEX_POINT('',#1748);
#515=VERTEX_POINT('',#1752);
#516=VERTEX_POINT('',#1757);
#517=VERTEX_POINT('',#1759);
#518=VERTEX_POINT('',#1762);
#519=VERTEX_POINT('',#1764);
#520=VERTEX_POINT('',#1768);
#521=VERTEX_POINT('',#1770);
#522=VERTEX_POINT('',#1772);
#523=VERTEX_POINT('',#1774);
#524=VERTEX_POINT('',#1776);
#525=VERTEX_POINT('',#1778);
#526=VERTEX_POINT('',#1780);
#527=VERTEX_POINT('',#1782);
#528=VERTEX_POINT('',#1784);
#529=VERTEX_POINT('',#1786);
#530=VERTEX_POINT('',#1789);
#531=VERTEX_POINT('',#1791);
#532=VERTEX_POINT('',#1795);
#533=VERTEX_POINT('',#1796);
#534=VERTEX_POINT('',#1801);
#535=VERTEX_POINT('',#1805);
#536=VERTEX_POINT('',#1809);
#537=VERTEX_POINT('',#1813);
#538=VERTEX_POINT('',#1822);
#539=VERTEX_POINT('',#1824);
#540=VERTEX_POINT('',#1828);
#541=VERTEX_POINT('',#1830);
#542=VERTEX_POINT('',#1836);
#543=VERTEX_POINT('',#1840);
#544=VERTEX_POINT('',#1844);
#545=VERTEX_POINT('',#1848);
#546=VERTEX_POINT('',#1855);
#547=VERTEX_POINT('',#1859);
#548=VERTEX_POINT('',#1863);
#549=VERTEX_POINT('',#1867);
#550=VERTEX_POINT('',#1871);
#551=VERTEX_POINT('',#1873);
#552=VERTEX_POINT('',#1876);
#553=VERTEX_POINT('',#1878);
#554=VERTEX_POINT('',#1881);
#555=VERTEX_POINT('',#1886);
#556=VERTEX_POINT('',#1888);
#557=VERTEX_POINT('',#1892);
#558=VERTEX_POINT('',#1896);
#559=VERTEX_POINT('',#1903);
#560=VERTEX_POINT('',#1905);
#561=VERTEX_POINT('',#1909);
#562=VERTEX_POINT('',#1913);
#563=EDGE_CURVE('',#453,#454,#401,.T.);
#564=EDGE_CURVE('',#455,#454,#175,.T.);
#565=EDGE_CURVE('',#456,#455,#402,.T.);
#566=EDGE_CURVE('',#456,#453,#176,.T.);
#567=EDGE_CURVE('',#454,#457,#177,.T.);
#568=EDGE_CURVE('',#458,#457,#178,.T.);
#569=EDGE_CURVE('',#455,#458,#179,.T.);
#570=EDGE_CURVE('',#457,#459,#180,.T.);
#571=EDGE_CURVE('',#460,#459,#181,.T.);
#572=EDGE_CURVE('',#458,#460,#182,.T.);
#573=EDGE_CURVE('',#459,#461,#183,.T.);
#574=EDGE_CURVE('',#462,#461,#184,.T.);
#575=EDGE_CURVE('',#460,#462,#185,.T.);
#576=EDGE_CURVE('',#461,#463,#403,.T.);
#577=EDGE_CURVE('',#464,#463,#186,.T.);
#578=EDGE_CURVE('',#462,#464,#404,.T.);
#579=EDGE_CURVE('',#463,#465,#187,.T.);
#580=EDGE_CURVE('',#466,#465,#188,.T.);
#581=EDGE_CURVE('',#464,#466,#189,.T.);
#582=EDGE_CURVE('',#467,#453,#190,.T.);
#583=EDGE_CURVE('',#468,#456,#191,.T.);
#584=EDGE_CURVE('',#468,#467,#192,.T.);
#585=EDGE_CURVE('',#465,#467,#405,.T.);
#586=EDGE_CURVE('',#469,#470,#193,.T.);
#587=EDGE_CURVE('',#469,#471,#194,.T.);
#588=EDGE_CURVE('',#472,#471,#195,.T.);
#589=EDGE_CURVE('',#470,#472,#196,.T.);
#590=EDGE_CURVE('',#473,#474,#197,.T.);
#591=EDGE_CURVE('',#475,#473,#198,.T.);
#592=EDGE_CURVE('',#476,#475,#199,.T.);
#593=EDGE_CURVE('',#474,#476,#200,.T.);
#594=EDGE_CURVE('',#471,#476,#406,.T.);
#595=EDGE_CURVE('',#472,#475,#407,.T.);
#596=EDGE_CURVE('',#470,#477,#408,.T.);
#597=EDGE_CURVE('',#477,#478,#201,.T.);
#598=EDGE_CURVE('',#478,#469,#409,.T.);
#599=EDGE_CURVE('',#474,#479,#410,.T.);
#600=EDGE_CURVE('',#479,#480,#202,.T.);
#601=EDGE_CURVE('',#480,#473,#411,.T.);
#602=EDGE_CURVE('',#481,#482,#203,.T.);
#603=EDGE_CURVE('',#481,#483,#204,.T.);
#604=EDGE_CURVE('',#484,#483,#205,.T.);
#605=EDGE_CURVE('',#482,#484,#206,.T.);
#606=EDGE_CURVE('',#482,#485,#412,.T.);
#607=EDGE_CURVE('',#486,#484,#413,.T.);
#608=EDGE_CURVE('',#485,#486,#207,.T.);
#609=EDGE_CURVE('',#485,#487,#208,.T.);
#610=EDGE_CURVE('',#488,#486,#209,.T.);
#611=EDGE_CURVE('',#487,#488,#210,.T.);
#612=EDGE_CURVE('',#483,#488,#414,.T.);
#613=EDGE_CURVE('',#466,#489,#415,.T.);
#614=EDGE_CURVE('',#489,#490,#211,.T.);
#615=EDGE_CURVE('',#490,#491,#416,.T.);
#616=EDGE_CURVE('',#491,#492,#212,.T.);
#617=EDGE_CURVE('',#492,#493,#417,.T.);
#618=EDGE_CURVE('',#493,#494,#213,.T.);
#619=EDGE_CURVE('',#494,#495,#418,.T.);
#620=EDGE_CURVE('',#495,#496,#214,.T.);
#621=EDGE_CURVE('',#496,#497,#419,.T.);
#622=EDGE_CURVE('',#497,#498,#215,.T.);
#623=EDGE_CURVE('',#498,#499,#420,.T.);
#624=EDGE_CURVE('',#499,#500,#216,.T.);
#625=EDGE_CURVE('',#500,#501,#217,.T.);
#626=EDGE_CURVE('',#501,#502,#218,.T.);
#627=EDGE_CURVE('',#502,#503,#421,.T.);
#628=EDGE_CURVE('',#503,#504,#219,.T.);
#629=EDGE_CURVE('',#504,#481,#422,.T.);
#630=EDGE_CURVE('',#487,#505,#423,.T.);
#631=EDGE_CURVE('',#505,#506,#220,.T.);
#632=EDGE_CURVE('',#506,#507,#424,.T.);
#633=EDGE_CURVE('',#507,#508,#221,.T.);
#634=EDGE_CURVE('',#508,#468,#425,.T.);
#635=EDGE_CURVE('',#509,#509,#426,.T.);
#636=EDGE_CURVE('',#506,#510,#222,.T.);
#637=EDGE_CURVE('',#511,#510,#427,.T.);
#638=EDGE_CURVE('',#507,#511,#223,.T.);
#639=EDGE_CURVE('',#505,#512,#224,.T.);
#640=EDGE_CURVE('',#510,#512,#225,.T.);
#641=EDGE_CURVE('',#479,#513,#226,.T.);
#642=EDGE_CURVE('',#514,#513,#227,.T.);
#643=EDGE_CURVE('',#480,#514,#228,.T.);
#644=EDGE_CURVE('',#513,#515,#428,.T.);
#645=EDGE_CURVE('',#515,#511,#229,.T.);
#646=EDGE_CURVE('',#512,#514,#429,.T.);
#647=EDGE_CURVE('',#504,#516,#230,.T.);
#648=EDGE_CURVE('',#516,#517,#430,.T.);
#649=EDGE_CURVE('',#497,#517,#231,.T.);
#650=EDGE_CURVE('',#496,#518,#232,.T.);
#651=EDGE_CURVE('',#519,#518,#431,.T.);
#652=EDGE_CURVE('',#477,#519,#233,.T.);
#653=EDGE_CURVE('',#508,#520,#234,.T.);
#654=EDGE_CURVE('',#521,#520,#432,.T.);
#655=EDGE_CURVE('',#522,#521,#235,.T.);
#656=EDGE_CURVE('',#523,#522,#433,.T.);
#657=EDGE_CURVE('',#523,#524,#236,.T.);
#658=EDGE_CURVE('',#524,#525,#434,.T.);
#659=EDGE_CURVE('',#525,#526,#237,.T.);
#660=EDGE_CURVE('',#527,#526,#435,.T.);
#661=EDGE_CURVE('',#527,#528,#238,.T.);
#662=EDGE_CURVE('',#529,#528,#436,.T.);
#663=EDGE_CURVE('',#493,#529,#239,.T.);
#664=EDGE_CURVE('',#492,#530,#240,.T.);
#665=EDGE_CURVE('',#531,#530,#437,.T.);
#666=EDGE_CURVE('',#489,#531,#241,.T.);
#667=EDGE_CURVE('',#532,#533,#438,.T.);
#668=EDGE_CURVE('',#499,#533,#242,.T.);
#669=EDGE_CURVE('',#498,#532,#243,.T.);
#670=EDGE_CURVE('',#533,#534,#244,.T.);
#671=EDGE_CURVE('',#500,#534,#245,.T.);
#672=EDGE_CURVE('',#534,#535,#246,.T.);
#673=EDGE_CURVE('',#501,#535,#247,.T.);
#674=EDGE_CURVE('',#535,#536,#248,.T.);
#675=EDGE_CURVE('',#502,#536,#249,.T.);
#676=EDGE_CURVE('',#536,#537,#439,.T.);
#677=EDGE_CURVE('',#503,#537,#250,.T.);
#678=EDGE_CURVE('',#537,#516,#251,.T.);
#679=EDGE_CURVE('',#517,#532,#252,.T.);
#680=EDGE_CURVE('',#538,#523,#253,.T.);
#681=EDGE_CURVE('',#538,#539,#254,.T.);
#682=EDGE_CURVE('',#524,#539,#255,.T.);
#683=EDGE_CURVE('',#526,#540,#256,.T.);
#684=EDGE_CURVE('',#541,#525,#257,.T.);
#685=EDGE_CURVE('',#540,#541,#258,.T.);
#686=EDGE_CURVE('',#539,#541,#440,.T.);
#687=EDGE_CURVE('',#522,#542,#259,.T.);
#688=EDGE_CURVE('',#542,#538,#441,.T.);
#689=EDGE_CURVE('',#540,#543,#442,.T.);
#690=EDGE_CURVE('',#543,#527,#260,.T.);
#691=EDGE_CURVE('',#491,#544,#261,.T.);
#692=EDGE_CURVE('',#530,#544,#262,.T.);
#693=EDGE_CURVE('',#490,#545,#263,.T.);
#694=EDGE_CURVE('',#544,#545,#443,.T.);
#695=EDGE_CURVE('',#545,#531,#264,.T.);
#696=EDGE_CURVE('',#543,#546,#265,.T.);
#697=EDGE_CURVE('',#528,#546,#266,.T.);
#698=EDGE_CURVE('',#547,#529,#267,.T.);
#699=EDGE_CURVE('',#494,#547,#268,.T.);
#700=EDGE_CURVE('',#548,#547,#444,.T.);
#701=EDGE_CURVE('',#495,#548,#269,.T.);
#702=EDGE_CURVE('',#546,#549,#445,.T.);
#703=EDGE_CURVE('',#549,#548,#270,.T.);
#704=EDGE_CURVE('',#550,#518,#271,.T.);
#705=EDGE_CURVE('',#551,#550,#446,.T.);
#706=EDGE_CURVE('',#521,#551,#272,.T.);
#707=EDGE_CURVE('',#552,#520,#273,.T.);
#708=EDGE_CURVE('',#553,#552,#447,.T.);
#709=EDGE_CURVE('',#519,#553,#274,.T.);
#710=EDGE_CURVE('',#554,#554,#448,.T.);
#711=EDGE_CURVE('',#509,#554,#275,.T.);
#712=EDGE_CURVE('',#555,#553,#276,.T.);
#713=EDGE_CURVE('',#556,#555,#277,.T.);
#714=EDGE_CURVE('',#556,#478,#278,.T.);
#715=EDGE_CURVE('',#557,#552,#279,.T.);
#716=EDGE_CURVE('',#557,#555,#449,.T.);
#717=EDGE_CURVE('',#558,#515,#280,.T.);
#718=EDGE_CURVE('',#558,#557,#281,.T.);
#719=EDGE_CURVE('',#558,#556,#450,.T.);
#720=EDGE_CURVE('',#559,#551,#282,.T.);
#721=EDGE_CURVE('',#559,#560,#283,.T.);
#722=EDGE_CURVE('',#560,#542,#284,.T.);
#723=EDGE_CURVE('',#561,#560,#451,.T.);
#724=EDGE_CURVE('',#561,#549,#285,.T.);
#725=EDGE_CURVE('',#562,#550,#286,.T.);
#726=EDGE_CURVE('',#562,#559,#452,.T.);
#727=EDGE_CURVE('',#562,#561,#287,.T.);
#728=ORIENTED_EDGE('',*,*,#563,.T.);
#729=ORIENTED_EDGE('',*,*,#564,.F.);
#730=ORIENTED_EDGE('',*,*,#565,.F.);
#731=ORIENTED_EDGE('',*,*,#566,.T.);
#732=ORIENTED_EDGE('',*,*,#567,.T.);
#733=ORIENTED_EDGE('',*,*,#568,.F.);
#734=ORIENTED_EDGE('',*,*,#569,.F.);
#735=ORIENTED_EDGE('',*,*,#564,.T.);
#736=ORIENTED_EDGE('',*,*,#570,.T.);
#737=ORIENTED_EDGE('',*,*,#571,.F.);
#738=ORIENTED_EDGE('',*,*,#572,.F.);
#739=ORIENTED_EDGE('',*,*,#568,.T.);
#740=ORIENTED_EDGE('',*,*,#573,.T.);
#741=ORIENTED_EDGE('',*,*,#574,.F.);
#742=ORIENTED_EDGE('',*,*,#575,.F.);
#743=ORIENTED_EDGE('',*,*,#571,.T.);
#744=ORIENTED_EDGE('',*,*,#576,.T.);
#745=ORIENTED_EDGE('',*,*,#577,.F.);
#746=ORIENTED_EDGE('',*,*,#578,.F.);
#747=ORIENTED_EDGE('',*,*,#574,.T.);
#748=ORIENTED_EDGE('',*,*,#579,.T.);
#749=ORIENTED_EDGE('',*,*,#580,.F.);
#750=ORIENTED_EDGE('',*,*,#581,.F.);
#751=ORIENTED_EDGE('',*,*,#577,.T.);
#752=ORIENTED_EDGE('',*,*,#582,.T.);
#753=ORIENTED_EDGE('',*,*,#566,.F.);
#754=ORIENTED_EDGE('',*,*,#583,.F.);
#755=ORIENTED_EDGE('',*,*,#584,.T.);
#756=ORIENTED_EDGE('',*,*,#576,.F.);
#757=ORIENTED_EDGE('',*,*,#573,.F.);
#758=ORIENTED_EDGE('',*,*,#570,.F.);
#759=ORIENTED_EDGE('',*,*,#567,.F.);
#760=ORIENTED_EDGE('',*,*,#563,.F.);
#761=ORIENTED_EDGE('',*,*,#582,.F.);
#762=ORIENTED_EDGE('',*,*,#585,.F.);
#763=ORIENTED_EDGE('',*,*,#579,.F.);
#764=ORIENTED_EDGE('',*,*,#586,.F.);
#765=ORIENTED_EDGE('',*,*,#587,.T.);
#766=ORIENTED_EDGE('',*,*,#588,.F.);
#767=ORIENTED_EDGE('',*,*,#589,.F.);
#768=ORIENTED_EDGE('',*,*,#590,.F.);
#769=ORIENTED_EDGE('',*,*,#591,.F.);
#770=ORIENTED_EDGE('',*,*,#592,.F.);
#771=ORIENTED_EDGE('',*,*,#593,.F.);
#772=ORIENTED_EDGE('',*,*,#594,.T.);
#773=ORIENTED_EDGE('',*,*,#592,.T.);
#774=ORIENTED_EDGE('',*,*,#595,.F.);
#775=ORIENTED_EDGE('',*,*,#588,.T.);
#776=ORIENTED_EDGE('',*,*,#586,.T.);
#777=ORIENTED_EDGE('',*,*,#596,.T.);
#778=ORIENTED_EDGE('',*,*,#597,.T.);
#779=ORIENTED_EDGE('',*,*,#598,.T.);
#780=ORIENTED_EDGE('',*,*,#590,.T.);
#781=ORIENTED_EDGE('',*,*,#599,.T.);
#782=ORIENTED_EDGE('',*,*,#600,.T.);
#783=ORIENTED_EDGE('',*,*,#601,.T.);
#784=ORIENTED_EDGE('',*,*,#602,.F.);
#785=ORIENTED_EDGE('',*,*,#603,.T.);
#786=ORIENTED_EDGE('',*,*,#604,.F.);
#787=ORIENTED_EDGE('',*,*,#605,.F.);
#788=ORIENTED_EDGE('',*,*,#606,.F.);
#789=ORIENTED_EDGE('',*,*,#605,.T.);
#790=ORIENTED_EDGE('',*,*,#607,.F.);
#791=ORIENTED_EDGE('',*,*,#608,.F.);
#792=ORIENTED_EDGE('',*,*,#609,.F.);
#793=ORIENTED_EDGE('',*,*,#608,.T.);
#794=ORIENTED_EDGE('',*,*,#610,.F.);
#795=ORIENTED_EDGE('',*,*,#611,.F.);
#796=ORIENTED_EDGE('',*,*,#612,.T.);
#797=ORIENTED_EDGE('',*,*,#610,.T.);
#798=ORIENTED_EDGE('',*,*,#607,.T.);
#799=ORIENTED_EDGE('',*,*,#604,.T.);
#800=ORIENTED_EDGE('',*,*,#581,.T.);
#801=ORIENTED_EDGE('',*,*,#613,.T.);
#802=ORIENTED_EDGE('',*,*,#614,.T.);
#803=ORIENTED_EDGE('',*,*,#615,.T.);
#804=ORIENTED_EDGE('',*,*,#616,.T.);
#805=ORIENTED_EDGE('',*,*,#617,.T.);
#806=ORIENTED_EDGE('',*,*,#618,.T.);
#807=ORIENTED_EDGE('',*,*,#619,.T.);
#808=ORIENTED_EDGE('',*,*,#620,.T.);
#809=ORIENTED_EDGE('',*,*,#621,.T.);
#810=ORIENTED_EDGE('',*,*,#622,.T.);
#811=ORIENTED_EDGE('',*,*,#623,.T.);
#812=ORIENTED_EDGE('',*,*,#624,.T.);
#813=ORIENTED_EDGE('',*,*,#625,.T.);
#814=ORIENTED_EDGE('',*,*,#626,.T.);
#815=ORIENTED_EDGE('',*,*,#627,.T.);
#816=ORIENTED_EDGE('',*,*,#628,.T.);
#817=ORIENTED_EDGE('',*,*,#629,.T.);
#818=ORIENTED_EDGE('',*,*,#602,.T.);
#819=ORIENTED_EDGE('',*,*,#606,.T.);
#820=ORIENTED_EDGE('',*,*,#609,.T.);
#821=ORIENTED_EDGE('',*,*,#630,.T.);
#822=ORIENTED_EDGE('',*,*,#631,.T.);
#823=ORIENTED_EDGE('',*,*,#632,.T.);
#824=ORIENTED_EDGE('',*,*,#633,.T.);
#825=ORIENTED_EDGE('',*,*,#634,.T.);
#826=ORIENTED_EDGE('',*,*,#583,.T.);
#827=ORIENTED_EDGE('',*,*,#565,.T.);
#828=ORIENTED_EDGE('',*,*,#569,.T.);
#829=ORIENTED_EDGE('',*,*,#572,.T.);
#830=ORIENTED_EDGE('',*,*,#575,.T.);
#831=ORIENTED_EDGE('',*,*,#578,.T.);
#832=ORIENTED_EDGE('',*,*,#635,.T.);
#833=ORIENTED_EDGE('',*,*,#632,.F.);
#834=ORIENTED_EDGE('',*,*,#636,.T.);
#835=ORIENTED_EDGE('',*,*,#637,.F.);
#836=ORIENTED_EDGE('',*,*,#638,.F.);
#837=ORIENTED_EDGE('',*,*,#631,.F.);
#838=ORIENTED_EDGE('',*,*,#639,.T.);
#839=ORIENTED_EDGE('',*,*,#640,.F.);
#840=ORIENTED_EDGE('',*,*,#636,.F.);
#841=ORIENTED_EDGE('',*,*,#600,.F.);
#842=ORIENTED_EDGE('',*,*,#641,.T.);
#843=ORIENTED_EDGE('',*,*,#642,.F.);
#844=ORIENTED_EDGE('',*,*,#643,.F.);
#845=ORIENTED_EDGE('',*,*,#644,.T.);
#846=ORIENTED_EDGE('',*,*,#645,.T.);
#847=ORIENTED_EDGE('',*,*,#637,.T.);
#848=ORIENTED_EDGE('',*,*,#640,.T.);
#849=ORIENTED_EDGE('',*,*,#646,.T.);
#850=ORIENTED_EDGE('',*,*,#642,.T.);
#851=ORIENTED_EDGE('',*,*,#591,.T.);
#852=ORIENTED_EDGE('',*,*,#601,.F.);
#853=ORIENTED_EDGE('',*,*,#643,.T.);
#854=ORIENTED_EDGE('',*,*,#646,.F.);
#855=ORIENTED_EDGE('',*,*,#639,.F.);
#856=ORIENTED_EDGE('',*,*,#630,.F.);
#857=ORIENTED_EDGE('',*,*,#611,.T.);
#858=ORIENTED_EDGE('',*,*,#612,.F.);
#859=ORIENTED_EDGE('',*,*,#603,.F.);
#860=ORIENTED_EDGE('',*,*,#629,.F.);
#861=ORIENTED_EDGE('',*,*,#647,.T.);
#862=ORIENTED_EDGE('',*,*,#648,.T.);
#863=ORIENTED_EDGE('',*,*,#649,.F.);
#864=ORIENTED_EDGE('',*,*,#621,.F.);
#865=ORIENTED_EDGE('',*,*,#650,.T.);
#866=ORIENTED_EDGE('',*,*,#651,.F.);
#867=ORIENTED_EDGE('',*,*,#652,.F.);
#868=ORIENTED_EDGE('',*,*,#596,.F.);
#869=ORIENTED_EDGE('',*,*,#589,.T.);
#870=ORIENTED_EDGE('',*,*,#595,.T.);
#871=ORIENTED_EDGE('',*,*,#653,.T.);
#872=ORIENTED_EDGE('',*,*,#654,.F.);
#873=ORIENTED_EDGE('',*,*,#655,.F.);
#874=ORIENTED_EDGE('',*,*,#656,.F.);
#875=ORIENTED_EDGE('',*,*,#657,.T.);
#876=ORIENTED_EDGE('',*,*,#658,.T.);
#877=ORIENTED_EDGE('',*,*,#659,.T.);
#878=ORIENTED_EDGE('',*,*,#660,.F.);
#879=ORIENTED_EDGE('',*,*,#661,.T.);
#880=ORIENTED_EDGE('',*,*,#662,.F.);
#881=ORIENTED_EDGE('',*,*,#663,.F.);
#882=ORIENTED_EDGE('',*,*,#617,.F.);
#883=ORIENTED_EDGE('',*,*,#664,.T.);
#884=ORIENTED_EDGE('',*,*,#665,.F.);
#885=ORIENTED_EDGE('',*,*,#666,.F.);
#886=ORIENTED_EDGE('',*,*,#613,.F.);
#887=ORIENTED_EDGE('',*,*,#580,.T.);
#888=ORIENTED_EDGE('',*,*,#585,.T.);
#889=ORIENTED_EDGE('',*,*,#584,.F.);
#890=ORIENTED_EDGE('',*,*,#634,.F.);
#891=ORIENTED_EDGE('',*,*,#667,.T.);
#892=ORIENTED_EDGE('',*,*,#668,.F.);
#893=ORIENTED_EDGE('',*,*,#623,.F.);
#894=ORIENTED_EDGE('',*,*,#669,.T.);
#895=ORIENTED_EDGE('',*,*,#670,.T.);
#896=ORIENTED_EDGE('',*,*,#671,.F.);
#897=ORIENTED_EDGE('',*,*,#624,.F.);
#898=ORIENTED_EDGE('',*,*,#668,.T.);
#899=ORIENTED_EDGE('',*,*,#672,.T.);
#900=ORIENTED_EDGE('',*,*,#673,.F.);
#901=ORIENTED_EDGE('',*,*,#625,.F.);
#902=ORIENTED_EDGE('',*,*,#671,.T.);
#903=ORIENTED_EDGE('',*,*,#674,.T.);
#904=ORIENTED_EDGE('',*,*,#675,.F.);
#905=ORIENTED_EDGE('',*,*,#626,.F.);
#906=ORIENTED_EDGE('',*,*,#673,.T.);
#907=ORIENTED_EDGE('',*,*,#676,.T.);
#908=ORIENTED_EDGE('',*,*,#677,.F.);
#909=ORIENTED_EDGE('',*,*,#627,.F.);
#910=ORIENTED_EDGE('',*,*,#675,.T.);
#911=ORIENTED_EDGE('',*,*,#678,.T.);
#912=ORIENTED_EDGE('',*,*,#647,.F.);
#913=ORIENTED_EDGE('',*,*,#628,.F.);
#914=ORIENTED_EDGE('',*,*,#677,.T.);
#915=ORIENTED_EDGE('',*,*,#679,.T.);
#916=ORIENTED_EDGE('',*,*,#669,.F.);
#917=ORIENTED_EDGE('',*,*,#622,.F.);
#918=ORIENTED_EDGE('',*,*,#649,.T.);
#919=ORIENTED_EDGE('',*,*,#676,.F.);
#920=ORIENTED_EDGE('',*,*,#674,.F.);
#921=ORIENTED_EDGE('',*,*,#672,.F.);
#922=ORIENTED_EDGE('',*,*,#670,.F.);
#923=ORIENTED_EDGE('',*,*,#667,.F.);
#924=ORIENTED_EDGE('',*,*,#679,.F.);
#925=ORIENTED_EDGE('',*,*,#648,.F.);
#926=ORIENTED_EDGE('',*,*,#678,.F.);
#927=ORIENTED_EDGE('',*,*,#680,.F.);
#928=ORIENTED_EDGE('',*,*,#681,.T.);
#929=ORIENTED_EDGE('',*,*,#682,.F.);
#930=ORIENTED_EDGE('',*,*,#657,.F.);
#931=ORIENTED_EDGE('',*,*,#683,.F.);
#932=ORIENTED_EDGE('',*,*,#659,.F.);
#933=ORIENTED_EDGE('',*,*,#684,.F.);
#934=ORIENTED_EDGE('',*,*,#685,.F.);
#935=ORIENTED_EDGE('',*,*,#686,.T.);
#936=ORIENTED_EDGE('',*,*,#684,.T.);
#937=ORIENTED_EDGE('',*,*,#658,.F.);
#938=ORIENTED_EDGE('',*,*,#682,.T.);
#939=ORIENTED_EDGE('',*,*,#680,.T.);
#940=ORIENTED_EDGE('',*,*,#656,.T.);
#941=ORIENTED_EDGE('',*,*,#687,.T.);
#942=ORIENTED_EDGE('',*,*,#688,.T.);
#943=ORIENTED_EDGE('',*,*,#683,.T.);
#944=ORIENTED_EDGE('',*,*,#689,.T.);
#945=ORIENTED_EDGE('',*,*,#690,.T.);
#946=ORIENTED_EDGE('',*,*,#660,.T.);
#947=ORIENTED_EDGE('',*,*,#616,.F.);
#948=ORIENTED_EDGE('',*,*,#691,.T.);
#949=ORIENTED_EDGE('',*,*,#692,.F.);
#950=ORIENTED_EDGE('',*,*,#664,.F.);
#951=ORIENTED_EDGE('',*,*,#615,.F.);
#952=ORIENTED_EDGE('',*,*,#693,.T.);
#953=ORIENTED_EDGE('',*,*,#694,.F.);
#954=ORIENTED_EDGE('',*,*,#691,.F.);
#955=ORIENTED_EDGE('',*,*,#614,.F.);
#956=ORIENTED_EDGE('',*,*,#666,.T.);
#957=ORIENTED_EDGE('',*,*,#695,.F.);
#958=ORIENTED_EDGE('',*,*,#693,.F.);
#959=ORIENTED_EDGE('',*,*,#665,.T.);
#960=ORIENTED_EDGE('',*,*,#692,.T.);
#961=ORIENTED_EDGE('',*,*,#694,.T.);
#962=ORIENTED_EDGE('',*,*,#695,.T.);
#963=ORIENTED_EDGE('',*,*,#690,.F.);
#964=ORIENTED_EDGE('',*,*,#696,.T.);
#965=ORIENTED_EDGE('',*,*,#697,.F.);
#966=ORIENTED_EDGE('',*,*,#661,.F.);
#967=ORIENTED_EDGE('',*,*,#618,.F.);
#968=ORIENTED_EDGE('',*,*,#663,.T.);
#969=ORIENTED_EDGE('',*,*,#698,.F.);
#970=ORIENTED_EDGE('',*,*,#699,.F.);
#971=ORIENTED_EDGE('',*,*,#619,.F.);
#972=ORIENTED_EDGE('',*,*,#699,.T.);
#973=ORIENTED_EDGE('',*,*,#700,.F.);
#974=ORIENTED_EDGE('',*,*,#701,.F.);
#975=ORIENTED_EDGE('',*,*,#702,.T.);
#976=ORIENTED_EDGE('',*,*,#703,.T.);
#977=ORIENTED_EDGE('',*,*,#700,.T.);
#978=ORIENTED_EDGE('',*,*,#698,.T.);
#979=ORIENTED_EDGE('',*,*,#662,.T.);
#980=ORIENTED_EDGE('',*,*,#697,.T.);
#981=ORIENTED_EDGE('',*,*,#704,.F.);
#982=ORIENTED_EDGE('',*,*,#705,.F.);
#983=ORIENTED_EDGE('',*,*,#706,.F.);
#984=ORIENTED_EDGE('',*,*,#654,.T.);
#985=ORIENTED_EDGE('',*,*,#707,.F.);
#986=ORIENTED_EDGE('',*,*,#708,.F.);
#987=ORIENTED_EDGE('',*,*,#709,.F.);
#988=ORIENTED_EDGE('',*,*,#651,.T.);
#989=ORIENTED_EDGE('',*,*,#710,.T.);
#990=ORIENTED_EDGE('',*,*,#635,.F.);
#991=ORIENTED_EDGE('',*,*,#711,.T.);
#992=ORIENTED_EDGE('',*,*,#710,.F.);
#993=ORIENTED_EDGE('',*,*,#711,.F.);
#994=ORIENTED_EDGE('',*,*,#652,.T.);
#995=ORIENTED_EDGE('',*,*,#709,.T.);
#996=ORIENTED_EDGE('',*,*,#712,.F.);
#997=ORIENTED_EDGE('',*,*,#713,.F.);
#998=ORIENTED_EDGE('',*,*,#714,.T.);
#999=ORIENTED_EDGE('',*,*,#597,.F.);
#1000=ORIENTED_EDGE('',*,*,#708,.T.);
#1001=ORIENTED_EDGE('',*,*,#715,.F.);
#1002=ORIENTED_EDGE('',*,*,#716,.T.);
#1003=ORIENTED_EDGE('',*,*,#712,.T.);
#1004=ORIENTED_EDGE('',*,*,#653,.F.);
#1005=ORIENTED_EDGE('',*,*,#633,.F.);
#1006=ORIENTED_EDGE('',*,*,#638,.T.);
#1007=ORIENTED_EDGE('',*,*,#645,.F.);
#1008=ORIENTED_EDGE('',*,*,#717,.F.);
#1009=ORIENTED_EDGE('',*,*,#718,.T.);
#1010=ORIENTED_EDGE('',*,*,#715,.T.);
#1011=ORIENTED_EDGE('',*,*,#707,.T.);
#1012=ORIENTED_EDGE('',*,*,#719,.F.);
#1013=ORIENTED_EDGE('',*,*,#717,.T.);
#1014=ORIENTED_EDGE('',*,*,#644,.F.);
#1015=ORIENTED_EDGE('',*,*,#641,.F.);
#1016=ORIENTED_EDGE('',*,*,#599,.F.);
#1017=ORIENTED_EDGE('',*,*,#593,.T.);
#1018=ORIENTED_EDGE('',*,*,#594,.F.);
#1019=ORIENTED_EDGE('',*,*,#587,.F.);
#1020=ORIENTED_EDGE('',*,*,#598,.F.);
#1021=ORIENTED_EDGE('',*,*,#714,.F.);
#1022=ORIENTED_EDGE('',*,*,#719,.T.);
#1023=ORIENTED_EDGE('',*,*,#713,.T.);
#1024=ORIENTED_EDGE('',*,*,#716,.F.);
#1025=ORIENTED_EDGE('',*,*,#718,.F.);
#1026=ORIENTED_EDGE('',*,*,#655,.T.);
#1027=ORIENTED_EDGE('',*,*,#706,.T.);
#1028=ORIENTED_EDGE('',*,*,#720,.F.);
#1029=ORIENTED_EDGE('',*,*,#721,.T.);
#1030=ORIENTED_EDGE('',*,*,#722,.T.);
#1031=ORIENTED_EDGE('',*,*,#687,.F.);
#1032=ORIENTED_EDGE('',*,*,#723,.F.);
#1033=ORIENTED_EDGE('',*,*,#724,.T.);
#1034=ORIENTED_EDGE('',*,*,#702,.F.);
#1035=ORIENTED_EDGE('',*,*,#696,.F.);
#1036=ORIENTED_EDGE('',*,*,#689,.F.);
#1037=ORIENTED_EDGE('',*,*,#685,.T.);
#1038=ORIENTED_EDGE('',*,*,#686,.F.);
#1039=ORIENTED_EDGE('',*,*,#681,.F.);
#1040=ORIENTED_EDGE('',*,*,#688,.F.);
#1041=ORIENTED_EDGE('',*,*,#722,.F.);
#1042=ORIENTED_EDGE('',*,*,#705,.T.);
#1043=ORIENTED_EDGE('',*,*,#725,.F.);
#1044=ORIENTED_EDGE('',*,*,#726,.T.);
#1045=ORIENTED_EDGE('',*,*,#720,.T.);
#1046=ORIENTED_EDGE('',*,*,#650,.F.);
#1047=ORIENTED_EDGE('',*,*,#620,.F.);
#1048=ORIENTED_EDGE('',*,*,#701,.T.);
#1049=ORIENTED_EDGE('',*,*,#703,.F.);
#1050=ORIENTED_EDGE('',*,*,#724,.F.);
#1051=ORIENTED_EDGE('',*,*,#727,.F.);
#1052=ORIENTED_EDGE('',*,*,#725,.T.);
#1053=ORIENTED_EDGE('',*,*,#704,.T.);
#1054=ORIENTED_EDGE('',*,*,#727,.T.);
#1055=ORIENTED_EDGE('',*,*,#723,.T.);
#1056=ORIENTED_EDGE('',*,*,#721,.F.);
#1057=ORIENTED_EDGE('',*,*,#726,.F.);
#1058=CYLINDRICAL_SURFACE('',#1144,6.7);
#1059=CYLINDRICAL_SURFACE('',#1150,6.7);
#1060=CYLINDRICAL_SURFACE('',#1169,8.35);
#1061=CYLINDRICAL_SURFACE('',#1188,8.35);
#1062=CYLINDRICAL_SURFACE('',#1195,9.35);
#1063=CYLINDRICAL_SURFACE('',#1198,9.35);
#1064=CYLINDRICAL_SURFACE('',#1205,6.7);
#1065=CYLINDRICAL_SURFACE('',#1210,6.7);
#1066=CYLINDRICAL_SURFACE('',#1224,8.35);
#1067=CYLINDRICAL_SURFACE('',#1230,8.35);
#1068=CYLINDRICAL_SURFACE('',#1238,4.255);
#1069=CYLINDRICAL_SURFACE('',#1240,8.45);
#1070=CYLINDRICAL_SURFACE('',#1243,12.5);
#1071=CYLINDRICAL_SURFACE('',#1247,12.5);
#1072=CYLINDRICAL_SURFACE('',#1249,8.45);
#1073=ADVANCED_FACE('',(#59),#1058,.F.);
#1074=ADVANCED_FACE('',(#60),#17,.T.);
#1075=ADVANCED_FACE('',(#61),#18,.T.);
#1076=ADVANCED_FACE('',(#62),#19,.T.);
#1077=ADVANCED_FACE('',(#63),#1059,.F.);
#1078=ADVANCED_FACE('',(#64),#20,.T.);
#1079=ADVANCED_FACE('',(#65),#21,.T.);
#1080=ADVANCED_FACE('',(#66),#22,.T.);
#1081=ADVANCED_FACE('',(#67),#23,.T.);
#1082=ADVANCED_FACE('',(#68),#24,.T.);
#1083=ADVANCED_FACE('',(#69),#25,.T.);
#1084=ADVANCED_FACE('',(#70),#26,.F.);
#1085=ADVANCED_FACE('',(#71),#27,.F.);
#1086=ADVANCED_FACE('',(#72),#28,.T.);
#1087=ADVANCED_FACE('',(#73),#1060,.F.);
#1088=ADVANCED_FACE('',(#74),#29,.T.);
#1089=ADVANCED_FACE('',(#75),#30,.T.);
#1090=ADVANCED_FACE('',(#76,#15),#31,.T.);
#1091=ADVANCED_FACE('',(#77),#1061,.F.);
#1092=ADVANCED_FACE('',(#78),#32,.T.);
#1093=ADVANCED_FACE('',(#79),#33,.T.);
#1094=ADVANCED_FACE('',(#80),#34,.T.);
#1095=ADVANCED_FACE('',(#81),#1062,.T.);
#1096=ADVANCED_FACE('',(#82),#1063,.T.);
#1097=ADVANCED_FACE('',(#83),#1064,.F.);
#1098=ADVANCED_FACE('',(#84),#35,.T.);
#1099=ADVANCED_FACE('',(#85),#36,.T.);
#1100=ADVANCED_FACE('',(#86),#37,.T.);
#1101=ADVANCED_FACE('',(#87),#1065,.F.);
#1102=ADVANCED_FACE('',(#88),#38,.T.);
#1103=ADVANCED_FACE('',(#89),#39,.T.);
#1104=ADVANCED_FACE('',(#90),#40,.T.);
#1105=ADVANCED_FACE('',(#91),#41,.T.);
#1106=ADVANCED_FACE('',(#92),#42,.T.);
#1107=ADVANCED_FACE('',(#93),#43,.T.);
#1108=ADVANCED_FACE('',(#94),#44,.F.);
#1109=ADVANCED_FACE('',(#95),#45,.F.);
#1110=ADVANCED_FACE('',(#96),#46,.T.);
#1111=ADVANCED_FACE('',(#97),#1066,.F.);
#1112=ADVANCED_FACE('',(#98),#47,.T.);
#1113=ADVANCED_FACE('',(#99),#48,.T.);
#1114=ADVANCED_FACE('',(#100),#49,.T.);
#1115=ADVANCED_FACE('',(#101),#50,.T.);
#1116=ADVANCED_FACE('',(#102),#1067,.F.);
#1117=ADVANCED_FACE('',(#103),#51,.T.);
#1118=ADVANCED_FACE('',(#104,#16),#52,.F.);
#1119=ADVANCED_FACE('',(#105),#1068,.F.);
#1120=ADVANCED_FACE('',(#106),#53,.T.);
#1121=ADVANCED_FACE('',(#107),#1069,.F.);
#1122=ADVANCED_FACE('',(#108),#54,.T.);
#1123=ADVANCED_FACE('',(#109),#1070,.T.);
#1124=ADVANCED_FACE('',(#110),#55,.T.);
#1125=ADVANCED_FACE('',(#111),#56,.T.);
#1126=ADVANCED_FACE('',(#112),#1071,.T.);
#1127=ADVANCED_FACE('',(#113),#1072,.F.);
#1128=ADVANCED_FACE('',(#114),#57,.T.);
#1129=ADVANCED_FACE('',(#115),#58,.T.);
#1130=CLOSED_SHELL('',(#1073,#1074,#1075,#1076,#1077,#1078,#1079,#1080,
#1081,#1082,#1083,#1084,#1085,#1086,#1087,#1088,#1089,#1090,#1091,#1092,
#1093,#1094,#1095,#1096,#1097,#1098,#1099,#1100,#1101,#1102,#1103,#1104,
#1105,#1106,#1107,#1108,#1109,#1110,#1111,#1112,#1113,#1114,#1115,#1116,
#1117,#1118,#1119,#1120,#1121,#1122,#1123,#1124,#1125,#1126,#1127,#1128,
#1129));
#1131=DERIVED_UNIT_ELEMENT(#1133,1.);
#1132=DERIVED_UNIT_ELEMENT(#1924,-3.);
#1133=(
MASS_UNIT()
NAMED_UNIT(*)
SI_UNIT(.KILO.,.GRAM.)
);
#1134=DERIVED_UNIT((#1131,#1132));
#1135=MEASURE_REPRESENTATION_ITEM('density measure',
POSITIVE_RATIO_MEASURE(7850.),#1134);
#1136=PROPERTY_DEFINITION_REPRESENTATION(#1141,#1138);
#1137=PROPERTY_DEFINITION_REPRESENTATION(#1142,#1139);
#1138=REPRESENTATION('material name',(#1140),#1921);
#1139=REPRESENTATION('density',(#1135),#1921);
#1140=DESCRIPTIVE_REPRESENTATION_ITEM('Steel','Steel');
#1141=PROPERTY_DEFINITION('material property','material name',#1931);
#1142=PROPERTY_DEFINITION('material property','density of part',#1931);
#1143=AXIS2_PLACEMENT_3D('',#1586,#1253,#1254);
#1144=AXIS2_PLACEMENT_3D('',#1587,#1255,#1256);
#1145=AXIS2_PLACEMENT_3D('',#1590,#1257,#1258);
#1146=AXIS2_PLACEMENT_3D('',#1594,#1260,#1261);
#1147=AXIS2_PLACEMENT_3D('',#1596,#1263,#1264);
#1148=AXIS2_PLACEMENT_3D('',#1602,#1268,#1269);
#1149=AXIS2_PLACEMENT_3D('',#1608,#1273,#1274);
#1150=AXIS2_PLACEMENT_3D('',#1614,#1278,#1279);
#1151=AXIS2_PLACEMENT_3D('',#1616,#1280,#1281);
#1152=AXIS2_PLACEMENT_3D('',#1619,#1283,#1284);
#1153=AXIS2_PLACEMENT_3D('',#1620,#1285,#1286);
#1154=AXIS2_PLACEMENT_3D('',#1626,#1290,#1291);
#1155=AXIS2_PLACEMENT_3D('',#1632,#1295,#1296);
#1156=AXIS2_PLACEMENT_3D('',#1633,#1297,#1298);
#1157=AXIS2_PLACEMENT_3D('',#1634,#1299,#1300);
#1158=AXIS2_PLACEMENT_3D('',#1643,#1305,#1306);
#1159=AXIS2_PLACEMENT_3D('',#1652,#1311,#1312);
#1160=AXIS2_PLACEMENT_3D('',#1653,#1313,#1314);
#1161=AXIS2_PLACEMENT_3D('',#1654,#1315,#1316);
#1162=AXIS2_PLACEMENT_3D('',#1655,#1317,#1318);
#1163=AXIS2_PLACEMENT_3D('',#1657,#1319,#1320);
#1164=AXIS2_PLACEMENT_3D('',#1660,#1322,#1323);
#1165=AXIS2_PLACEMENT_3D('',#1661,#1324,#1325);
#1166=AXIS2_PLACEMENT_3D('',#1663,#1326,#1327);
#1167=AXIS2_PLACEMENT_3D('',#1666,#1329,#1330);
#1168=AXIS2_PLACEMENT_3D('',#1667,#1331,#1332);
#1169=AXIS2_PLACEMENT_3D('',#1676,#1337,#1338);
#1170=AXIS2_PLACEMENT_3D('',#1678,#1339,#1340);
#1171=AXIS2_PLACEMENT_3D('',#1680,#1341,#1342);
#1172=AXIS2_PLACEMENT_3D('',#1682,#1344,#1345);
#1173=AXIS2_PLACEMENT_3D('',#1688,#1349,#1350);
#1174=AXIS2_PLACEMENT_3D('',#1689,#1351,#1352);
#1175=AXIS2_PLACEMENT_3D('',#1690,#1353,#1354);
#1176=AXIS2_PLACEMENT_3D('',#1692,#1355,#1356);
#1177=AXIS2_PLACEMENT_3D('',#1696,#1358,#1359);
#1178=AXIS2_PLACEMENT_3D('',#1700,#1361,#1362);
#1179=AXIS2_PLACEMENT_3D('',#1704,#1364,#1365);
#1180=AXIS2_PLACEMENT_3D('',#1708,#1367,#1368);
#1181=AXIS2_PLACEMENT_3D('',#1712,#1370,#1371);
#1182=AXIS2_PLACEMENT_3D('',#1720,#1375,#1376);
#1183=AXIS2_PLACEMENT_3D('',#1723,#1378,#1379);
#1184=AXIS2_PLACEMENT_3D('',#1725,#1380,#1381);
#1185=AXIS2_PLACEMENT_3D('',#1729,#1383,#1384);
#1186=AXIS2_PLACEMENT_3D('',#1732,#1386,#1387);
#1187=AXIS2_PLACEMENT_3D('',#1734,#1388,#1389);
#1188=AXIS2_PLACEMENT_3D('',#1735,#1390,#1391);
#1189=AXIS2_PLACEMENT_3D('',#1739,#1393,#1394);
#1190=AXIS2_PLACEMENT_3D('',#1741,#1396,#1397);
#1191=AXIS2_PLACEMENT_3D('',#1745,#1400,#1401);
#1192=AXIS2_PLACEMENT_3D('',#1751,#1405,#1406);
#1193=AXIS2_PLACEMENT_3D('',#1753,#1407,#1408);
#1194=AXIS2_PLACEMENT_3D('',#1755,#1410,#1411);
#1195=AXIS2_PLACEMENT_3D('',#1756,#1412,#1413);
#1196=AXIS2_PLACEMENT_3D('',#1760,#1415,#1416);
#1197=AXIS2_PLACEMENT_3D('',#1765,#1419,#1420);
#1198=AXIS2_PLACEMENT_3D('',#1767,#1422,#1423);
#1199=AXIS2_PLACEMENT_3D('',#1771,#1425,#1426);
#1200=AXIS2_PLACEMENT_3D('',#1775,#1428,#1429);
#1201=AXIS2_PLACEMENT_3D('',#1779,#1431,#1432);
#1202=AXIS2_PLACEMENT_3D('',#1783,#1434,#1435);
#1203=AXIS2_PLACEMENT_3D('',#1787,#1437,#1438);
#1204=AXIS2_PLACEMENT_3D('',#1792,#1441,#1442);
#1205=AXIS2_PLACEMENT_3D('',#1794,#1444,#1445);
#1206=AXIS2_PLACEMENT_3D('',#1797,#1446,#1447);
#1207=AXIS2_PLACEMENT_3D('',#1800,#1450,#1451);
#1208=AXIS2_PLACEMENT_3D('',#1804,#1454,#1455);
#1209=AXIS2_PLACEMENT_3D('',#1808,#1458,#1459);
#1210=AXIS2_PLACEMENT_3D('',#1812,#1462,#1463);
#1211=AXIS2_PLACEMENT_3D('',#1814,#1464,#1465);
#1212=AXIS2_PLACEMENT_3D('',#1816,#1467,#1468);
#1213=AXIS2_PLACEMENT_3D('',#1818,#1470,#1471);
#1214=AXIS2_PLACEMENT_3D('',#1820,#1473,#1474);
#1215=AXIS2_PLACEMENT_3D('',#1821,#1475,#1476);
#1216=AXIS2_PLACEMENT_3D('',#1827,#1480,#1481);
#1217=AXIS2_PLACEMENT_3D('',#1833,#1485,#1486);
#1218=AXIS2_PLACEMENT_3D('',#1834,#1487,#1488);
#1219=AXIS2_PLACEMENT_3D('',#1835,#1489,#1490);
#1220=AXIS2_PLACEMENT_3D('',#1838,#1492,#1493);
#1221=AXIS2_PLACEMENT_3D('',#1839,#1494,#1495);
#1222=AXIS2_PLACEMENT_3D('',#1841,#1496,#1497);
#1223=AXIS2_PLACEMENT_3D('',#1843,#1499,#1500);
#1224=AXIS2_PLACEMENT_3D('',#1847,#1503,#1504);
#1225=AXIS2_PLACEMENT_3D('',#1850,#1506,#1507);
#1226=AXIS2_PLACEMENT_3D('',#1851,#1508,#1509);
#1227=AXIS2_PLACEMENT_3D('',#1853,#1511,#1512);
#1228=AXIS2_PLACEMENT_3D('',#1854,#1513,#1514);
#1229=AXIS2_PLACEMENT_3D('',#1858,#1517,#1518);
#1230=AXIS2_PLACEMENT_3D('',#1862,#1521,#1522);
#1231=AXIS2_PLACEMENT_3D('',#1864,#1523,#1524);
#1232=AXIS2_PLACEMENT_3D('',#1866,#1526,#1527);
#1233=AXIS2_PLACEMENT_3D('',#1868,#1528,#1529);
#1234=AXIS2_PLACEMENT_3D('',#1870,#1531,#1532);
#1235=AXIS2_PLACEMENT_3D('',#1874,#1534,#1535);
#1236=AXIS2_PLACEMENT_3D('',#1879,#1538,#1539);
#1237=AXIS2_PLACEMENT_3D('',#1882,#1541,#1542);
#1238=AXIS2_PLACEMENT_3D('',#1883,#1543,#1544);
#1239=AXIS2_PLACEMENT_3D('',#1885,#1546,#1547);
#1240=AXIS2_PLACEMENT_3D('',#1891,#1551,#1552);
#1241=AXIS2_PLACEMENT_3D('',#1894,#1554,#1555);
#1242=AXIS2_PLACEMENT_3D('',#1895,#1556,#1557);
#1243=AXIS2_PLACEMENT_3D('',#1899,#1560,#1561);
#1244=AXIS2_PLACEMENT_3D('',#1900,#1562,#1563);
#1245=AXIS2_PLACEMENT_3D('',#1901,#1564,#1565);
#1246=AXIS2_PLACEMENT_3D('',#1902,#1566,#1567);
#1247=AXIS2_PLACEMENT_3D('',#1908,#1571,#1572);
#1248=AXIS2_PLACEMENT_3D('',#1910,#1573,#1574);
#1249=AXIS2_PLACEMENT_3D('',#1912,#1576,#1577);
#1250=AXIS2_PLACEMENT_3D('',#1915,#1579,#1580);
#1251=AXIS2_PLACEMENT_3D('',#1916,#1581,#1582);
#1252=AXIS2_PLACEMENT_3D('',#1918,#1584,#1585);
#1253=DIRECTION('axis',(0.,0.,1.));
#1254=DIRECTION('refdir',(1.,0.,0.));
#1255=DIRECTION('center_axis',(0.,0.,-1.));
#1256=DIRECTION('ref_axis',(-1.,1.22464679914735E-16,0.));
#1257=DIRECTION('center_axis',(0.,0.,-1.));
#1258=DIRECTION('ref_axis',(-1.,1.22464679914735E-16,0.));
#1259=DIRECTION('',(0.,0.,-1.));
#1260=DIRECTION('center_axis',(0.,0.,-1.));
#1261=DIRECTION('ref_axis',(-1.,1.22464679914735E-16,0.));
#1262=DIRECTION('',(0.,0.,-1.));
#1263=DIRECTION('center_axis',(-9.52180859698869E-17,1.,0.));
#1264=DIRECTION('ref_axis',(1.,9.52180859698869E-17,0.));
#1265=DIRECTION('',(-1.,-9.52180859698869E-17,0.));
#1266=DIRECTION('',(0.,0.,-1.));
#1267=DIRECTION('',(-1.,-9.52180859698869E-17,0.));
#1268=DIRECTION('center_axis',(1.,-1.22464679914735E-16,0.));
#1269=DIRECTION('ref_axis',(-1.22464679914735E-16,-1.,0.));
#1270=DIRECTION('',(1.22464679914735E-16,1.,0.));
#1271=DIRECTION('',(0.,0.,-1.));
#1272=DIRECTION('',(1.22464679914735E-16,1.,0.));
#1273=DIRECTION('center_axis',(-1.22464679914735E-16,-1.,0.));
#1274=DIRECTION('ref_axis',(-1.,1.22464679914735E-16,0.));
#1275=DIRECTION('',(1.,-1.22464679914735E-16,0.));
#1276=DIRECTION('',(0.,0.,-1.));
#1277=DIRECTION('',(1.,-1.22464679914735E-16,0.));
#1278=DIRECTION('center_axis',(0.,0.,-1.));
#1279=DIRECTION('ref_axis',(-1.,1.22464679914735E-16,0.));
#1280=DIRECTION('center_axis',(0.,0.,-1.));
#1281=DIRECTION('ref_axis',(-1.,1.22464679914735E-16,0.));
#1282=DIRECTION('',(0.,0.,-1.));
#1283=DIRECTION('center_axis',(0.,0.,-1.));
#1284=DIRECTION('ref_axis',(-1.,1.22464679914735E-16,0.));
#1285=DIRECTION('center_axis',(1.22464679914735E-16,1.,0.));
#1286=DIRECTION('ref_axis',(1.,-1.22464679914735E-16,0.));
#1287=DIRECTION('',(-1.,1.22464679914735E-16,0.));
#1288=DIRECTION('',(0.,0.,-1.));
#1289=DIRECTION('',(-1.,1.22464679914735E-16,0.));
#1290=DIRECTION('center_axis',(7.75387962331467E-17,-1.,0.));
#1291=DIRECTION('ref_axis',(-1.,-7.75387962331467E-17,0.));
#1292=DIRECTION('',(1.,7.75387962331467E-17,0.));
#1293=DIRECTION('',(1.,7.75387962331467E-17,0.));
#1294=DIRECTION('',(0.,0.,-1.));
#1295=DIRECTION('center_axis',(0.,0.,-1.));
#1296=DIRECTION('ref_axis',(-1.,0.,0.));
#1297=DIRECTION('center_axis',(0.,0.,1.));
#1298=DIRECTION('ref_axis',(-0.707106781186548,-0.707106781186547,0.));
#1299=DIRECTION('center_axis',(0.766044443118978,0.642787609686539,0.));
#1300=DIRECTION('ref_axis',(0.642787609686539,-0.766044443118978,0.));
#1301=DIRECTION('',(-0.642787609686539,0.766044443118978,0.));
#1302=DIRECTION('',(0.,0.,-1.));
#1303=DIRECTION('',(0.642787609686539,-0.766044443118978,0.));
#1304=DIRECTION('',(0.,0.,-1.));
#1305=DIRECTION('center_axis',(-0.819152044288992,-0.573576436351046,0.));
#1306=DIRECTION('ref_axis',(-0.573576436351046,0.819152044288992,0.));
#1307=DIRECTION('',(0.573576436351046,-0.819152044288992,0.));
#1308=DIRECTION('',(0.,0.,1.));
#1309=DIRECTION('',(-0.573576436351046,0.819152044288992,0.));
#1310=DIRECTION('',(0.,0.,-1.));
#1311=DIRECTION('center_axis',(0.,0.,-1.));
#1312=DIRECTION('ref_axis',(-1.,1.22464679914735E-16,0.));
#1313=DIRECTION('center_axis',(0.,0.,-1.));
#1314=DIRECTION('ref_axis',(0.707106781186547,-0.707106781186548,0.));
#1315=DIRECTION('center_axis',(0.,0.,-1.));
#1316=DIRECTION('ref_axis',(1.,0.,0.));
#1317=DIRECTION('center_axis',(0.,0.,1.));
#1318=DIRECTION('ref_axis',(1.,0.,0.));
#1319=DIRECTION('center_axis',(0.,0.,1.));
#1320=DIRECTION('ref_axis',(1.,0.,0.));
#1321=DIRECTION('',(0.707106781186548,-0.707106781186548,0.));
#1322=DIRECTION('center_axis',(0.,0.,-1.));
#1323=DIRECTION('ref_axis',(1.,0.,0.));
#1324=DIRECTION('center_axis',(0.,0.,1.));
#1325=DIRECTION('ref_axis',(1.,0.,0.));
#1326=DIRECTION('center_axis',(0.,0.,-1.));
#1327=DIRECTION('ref_axis',(1.,0.,0.));
#1328=DIRECTION('',(0.707106781186548,0.707106781186547,0.));
#1329=DIRECTION('center_axis',(0.,0.,1.));
#1330=DIRECTION('ref_axis',(1.,0.,0.));
#1331=DIRECTION('center_axis',(0.707106781186548,0.707106781186547,0.));
#1332=DIRECTION('ref_axis',(0.707106781186547,-0.707106781186548,0.));
#1333=DIRECTION('',(-0.707106781186547,0.707106781186548,0.));
#1334=DIRECTION('',(0.,0.,-1.));
#1335=DIRECTION('',(0.707106781186547,-0.707106781186548,0.));
#1336=DIRECTION('',(0.,0.,-1.));
#1337=DIRECTION('center_axis',(0.,0.,-1.));
#1338=DIRECTION('ref_axis',(-1.,1.22464679914735E-16,0.));
#1339=DIRECTION('center_axis',(0.,0.,-1.));
#1340=DIRECTION('ref_axis',(-1.,1.22464679914735E-16,0.));
#1341=DIRECTION('center_axis',(0.,0.,1.));
#1342=DIRECTION('ref_axis',(-1.,1.22464679914735E-16,0.));
#1343=DIRECTION('',(0.,0.,-1.));
#1344=DIRECTION('center_axis',(-1.,1.43115069552448E-16,0.));
#1345=DIRECTION('ref_axis',(1.43115069552448E-16,1.,0.));
#1346=DIRECTION('',(-1.43115069552448E-16,-1.,0.));
#1347=DIRECTION('',(1.43115069552448E-16,1.,0.));
#1348=DIRECTION('',(0.,0.,-1.));
#1349=DIRECTION('center_axis',(0.,0.,-1.));
#1350=DIRECTION('ref_axis',(-1.,1.22464679914735E-16,0.));
#1351=DIRECTION('center_axis',(0.,0.,-1.));
#1352=DIRECTION('ref_axis',(-1.,1.22464679914735E-16,0.));
#1353=DIRECTION('center_axis',(0.,0.,-1.));
#1354=DIRECTION('ref_axis',(1.,0.,0.));
#1355=DIRECTION('center_axis',(0.,0.,-1.));
#1356=DIRECTION('ref_axis',(1.,0.,0.));
#1357=DIRECTION('',(0.707106781186548,-0.707106781186548,0.));
#1358=DIRECTION('center_axis',(0.,0.,-1.));
#1359=DIRECTION('ref_axis',(1.,0.,0.));
#1360=DIRECTION('',(2.0650389637713E-17,1.,0.));
#1361=DIRECTION('center_axis',(0.,0.,-1.));
#1362=DIRECTION('ref_axis',(1.,0.,0.));
#1363=DIRECTION('',(0.,-1.,0.));
#1364=DIRECTION('center_axis',(0.,0.,-1.));
#1365=DIRECTION('ref_axis',(1.,0.,0.));
#1366=DIRECTION('',(0.707106781186548,0.707106781186548,0.));
#1367=DIRECTION('center_axis',(0.,0.,-1.));
#1368=DIRECTION('ref_axis',(1.,0.,0.));
#1369=DIRECTION('',(-1.,-2.00003476147882E-16,0.));
#1370=DIRECTION('center_axis',(0.,0.,-1.));
#1371=DIRECTION('ref_axis',(1.,0.,0.));
#1372=DIRECTION('',(1.,2.17682765884622E-16,0.));
#1373=DIRECTION('',(0.,-1.,0.));
#1374=DIRECTION('',(-1.,0.,0.));
#1375=DIRECTION('center_axis',(0.,0.,-1.));
#1376=DIRECTION('ref_axis',(1.,0.,0.));
#1377=DIRECTION('',(1.,0.,0.));
#1378=DIRECTION('center_axis',(0.,0.,-1.));
#1379=DIRECTION('ref_axis',(1.,0.,0.));
#1380=DIRECTION('center_axis',(0.,0.,-1.));
#1381=DIRECTION('ref_axis',(1.,0.,0.));
#1382=DIRECTION('',(1.22464679914735E-16,1.,0.));
#1383=DIRECTION('center_axis',(0.,0.,-1.));
#1384=DIRECTION('ref_axis',(-1.,1.22464679914735E-16,0.));
#1385=DIRECTION('',(-0.707106781186548,-0.707106781186547,0.));
#1386=DIRECTION('center_axis',(0.,0.,-1.));
#1387=DIRECTION('ref_axis',(1.,0.,0.));
#1388=DIRECTION('center_axis',(0.,0.,1.));
#1389=DIRECTION('ref_axis',(1.,0.,0.));
#1390=DIRECTION('center_axis',(0.,0.,-1.));
#1391=DIRECTION('ref_axis',(-1.,1.22464679914735E-16,0.));
#1392=DIRECTION('',(0.,0.,-1.));
#1393=DIRECTION('center_axis',(0.,0.,1.));
#1394=DIRECTION('ref_axis',(-1.,1.22464679914735E-16,0.));
#1395=DIRECTION('',(0.,0.,-1.));
#1396=DIRECTION('center_axis',(1.,-1.22464679914735E-16,0.));
#1397=DIRECTION('ref_axis',(-1.22464679914735E-16,-1.,0.));
#1398=DIRECTION('',(0.,0.,-1.));
#1399=DIRECTION('',(-1.22464679914735E-16,-1.,0.));
#1400=DIRECTION('center_axis',(0.707106781186547,-0.707106781186548,0.));
#1401=DIRECTION('ref_axis',(-0.707106781186548,-0.707106781186547,0.));
#1402=DIRECTION('',(0.,0.,-1.));
#1403=DIRECTION('',(-0.707106781186548,-0.707106781186547,0.));
#1404=DIRECTION('',(0.,0.,-1.));
#1405=DIRECTION('center_axis',(0.,0.,-1.));
#1406=DIRECTION('ref_axis',(-1.,1.22464679914735E-16,0.));
#1407=DIRECTION('center_axis',(0.,0.,-1.));
#1408=DIRECTION('ref_axis',(-1.,1.22464679914735E-16,0.));
#1409=DIRECTION('',(0.707106781186548,0.707106781186547,0.));
#1410=DIRECTION('center_axis',(0.,0.,-1.));
#1411=DIRECTION('ref_axis',(-1.,1.22464679914735E-16,0.));
#1412=DIRECTION('center_axis',(0.,0.,-1.));
#1413=DIRECTION('ref_axis',(1.,0.,0.));
#1414=DIRECTION('',(0.,0.,-1.));
#1415=DIRECTION('center_axis',(0.,0.,1.));
#1416=DIRECTION('ref_axis',(0.707106781186548,0.707106781186547,0.));
#1417=DIRECTION('',(0.,0.,-1.));
#1418=DIRECTION('',(0.,0.,1.));
#1419=DIRECTION('center_axis',(0.,0.,1.));
#1420=DIRECTION('ref_axis',(1.,0.,0.));
#1421=DIRECTION('',(0.,0.,1.));
#1422=DIRECTION('center_axis',(0.,0.,-1.));
#1423=DIRECTION('ref_axis',(-0.74395963319852,0.668224561185177,0.));
#1424=DIRECTION('',(0.,0.,1.));
#1425=DIRECTION('center_axis',(0.,0.,1.));
#1426=DIRECTION('ref_axis',(1.,0.,0.));
#1427=DIRECTION('',(0.,0.,1.));
#1428=DIRECTION('center_axis',(0.,0.,1.));
#1429=DIRECTION('ref_axis',(1.,0.,0.));
#1430=DIRECTION('',(0.,0.,-1.));
#1431=DIRECTION('center_axis',(0.,0.,-1.));
#1432=DIRECTION('ref_axis',(1.,0.,0.));
#1433=DIRECTION('',(0.,0.,1.));
#1434=DIRECTION('center_axis',(0.,0.,1.));
#1435=DIRECTION('ref_axis',(1.,0.,0.));
#1436=DIRECTION('',(0.,0.,-1.));
#1437=DIRECTION('center_axis',(0.,0.,-1.));
#1438=DIRECTION('ref_axis',(1.,0.,0.));
#1439=DIRECTION('',(0.,0.,-1.));
#1440=DIRECTION('',(0.,0.,-1.));
#1441=DIRECTION('center_axis',(0.,0.,-1.));
#1442=DIRECTION('ref_axis',(1.,0.,0.));
#1443=DIRECTION('',(0.,0.,-1.));
#1444=DIRECTION('center_axis',(0.,0.,-1.));
#1445=DIRECTION('ref_axis',(1.,0.,0.));
#1446=DIRECTION('center_axis',(0.,0.,-1.));
#1447=DIRECTION('ref_axis',(1.,0.,0.));
#1448=DIRECTION('',(0.,0.,-1.));
#1449=DIRECTION('',(0.,0.,-1.));
#1450=DIRECTION('center_axis',(2.17682765884622E-16,-1.,0.));
#1451=DIRECTION('ref_axis',(-1.,-2.17682765884622E-16,0.));
#1452=DIRECTION('',(1.,2.17682765884622E-16,0.));
#1453=DIRECTION('',(0.,0.,-1.));
#1454=DIRECTION('center_axis',(-1.,0.,0.));
#1455=DIRECTION('ref_axis',(0.,1.,0.));
#1456=DIRECTION('',(0.,-1.,0.));
#1457=DIRECTION('',(0.,0.,-1.));
#1458=DIRECTION('center_axis',(0.,1.,0.));
#1459=DIRECTION('ref_axis',(1.,0.,0.));
#1460=DIRECTION('',(-1.,0.,0.));
#1461=DIRECTION('',(0.,0.,-1.));
#1462=DIRECTION('center_axis',(0.,0.,-1.));
#1463=DIRECTION('ref_axis',(1.,0.,0.));
#1464=DIRECTION('center_axis',(0.,0.,-1.));
#1465=DIRECTION('ref_axis',(1.,0.,0.));
#1466=DIRECTION('',(0.,0.,-1.));
#1467=DIRECTION('center_axis',(0.,-1.,0.));
#1468=DIRECTION('ref_axis',(-1.,0.,0.));
#1469=DIRECTION('',(1.,0.,0.));
#1470=DIRECTION('center_axis',(-2.00003476147882E-16,1.,0.));
#1471=DIRECTION('ref_axis',(1.,2.00003476147882E-16,0.));
#1472=DIRECTION('',(-1.,-2.00003476147882E-16,0.));
#1473=DIRECTION('center_axis',(0.,0.,-1.));
#1474=DIRECTION('ref_axis',(-1.,0.,0.));
#1475=DIRECTION('center_axis',(-0.766044443118978,-0.642787609686539,0.));
#1476=DIRECTION('ref_axis',(-0.642787609686539,0.766044443118978,0.));
#1477=DIRECTION('',(0.642787609686539,-0.766044443118978,0.));
#1478=DIRECTION('',(0.,0.,-1.));
#1479=DIRECTION('',(-0.642787609686539,0.766044443118978,0.));
#1480=DIRECTION('center_axis',(0.819152044288992,0.573576436351046,0.));
#1481=DIRECTION('ref_axis',(0.573576436351046,-0.819152044288992,0.));
#1482=DIRECTION('',(-0.573576436351046,0.819152044288992,0.));
#1483=DIRECTION('',(0.573576436351046,-0.819152044288992,0.));
#1484=DIRECTION('',(0.,0.,-1.));
#1485=DIRECTION('center_axis',(0.,0.,-1.));
#1486=DIRECTION('ref_axis',(1.,0.,0.));
#1487=DIRECTION('center_axis',(0.,0.,-1.));
#1488=DIRECTION('ref_axis',(-0.707106781186547,0.707106781186548,0.));
#1489=DIRECTION('center_axis',(0.,0.,1.));
#1490=DIRECTION('ref_axis',(1.,0.,0.));
#1491=DIRECTION('',(-0.707106781186548,0.707106781186548,0.));
#1492=DIRECTION('center_axis',(0.,0.,-1.));
#1493=DIRECTION('ref_axis',(1.,0.,0.));
#1494=DIRECTION('center_axis',(0.,0.,1.));
#1495=DIRECTION('ref_axis',(1.,0.,0.));
#1496=DIRECTION('center_axis',(0.,0.,-1.));
#1497=DIRECTION('ref_axis',(1.,0.,0.));
#1498=DIRECTION('',(-0.707106781186548,-0.707106781186548,0.));
#1499=DIRECTION('center_axis',(1.,-2.0650389637713E-17,0.));
#1500=DIRECTION('ref_axis',(-2.0650389637713E-17,-1.,0.));
#1501=DIRECTION('',(0.,0.,-1.));
#1502=DIRECTION('',(-2.0650389637713E-17,-1.,0.));
#1503=DIRECTION('center_axis',(0.,0.,-1.));
#1504=DIRECTION('ref_axis',(1.,0.,0.));
#1505=DIRECTION('',(0.,0.,-1.));
#1506=DIRECTION('center_axis',(0.,0.,1.));
#1507=DIRECTION('ref_axis',(1.,0.,0.));
#1508=DIRECTION('center_axis',(-0.707106781186548,-0.707106781186548,0.));
#1509=DIRECTION('ref_axis',(-0.707106781186548,0.707106781186548,0.));
#1510=DIRECTION('',(-0.707106781186548,0.707106781186548,0.));
#1511=DIRECTION('center_axis',(0.,0.,-1.));
#1512=DIRECTION('ref_axis',(1.,0.,0.));
#1513=DIRECTION('center_axis',(-0.707106781186548,0.707106781186548,0.));
#1514=DIRECTION('ref_axis',(0.707106781186548,0.707106781186548,0.));
#1515=DIRECTION('',(0.,0.,-1.));
#1516=DIRECTION('',(0.707106781186547,0.707106781186547,0.));
#1517=DIRECTION('center_axis',(-1.,0.,0.));
#1518=DIRECTION('ref_axis',(0.,1.,0.));
#1519=DIRECTION('',(0.,1.,0.));
#1520=DIRECTION('',(0.,0.,-1.));
#1521=DIRECTION('center_axis',(0.,0.,-1.));
#1522=DIRECTION('ref_axis',(1.,0.,0.));
#1523=DIRECTION('center_axis',(0.,0.,1.));
#1524=DIRECTION('ref_axis',(1.,0.,0.));
#1525=DIRECTION('',(0.,0.,-1.));
#1526=DIRECTION('center_axis',(0.,0.,-1.));
#1527=DIRECTION('ref_axis',(1.,0.,0.));
#1528=DIRECTION('center_axis',(0.,0.,-1.));
#1529=DIRECTION('ref_axis',(1.,0.,0.));
#1530=DIRECTION('',(-0.707106781186548,-0.707106781186548,0.));
#1531=DIRECTION('center_axis',(0.,0.,-1.));
#1532=DIRECTION('ref_axis',(1.,0.,0.));
#1533=DIRECTION('',(0.707106781186548,0.707106781186547,0.));
#1534=DIRECTION('center_axis',(0.,0.,-1.));
#1535=DIRECTION('ref_axis',(1.,0.,0.));
#1536=DIRECTION('',(0.707106781186548,-0.707106781186548,0.));
#1537=DIRECTION('',(-0.707106781186548,-0.707106781186547,0.));
#1538=DIRECTION('center_axis',(0.,0.,-1.));
#1539=DIRECTION('ref_axis',(1.,0.,0.));
#1540=DIRECTION('',(-0.707106781186548,0.707106781186548,0.));
#1541=DIRECTION('center_axis',(0.,0.,-1.));
#1542=DIRECTION('ref_axis',(1.,0.,0.));
#1543=DIRECTION('center_axis',(0.,0.,-1.));
#1544=DIRECTION('ref_axis',(1.,0.,0.));
#1545=DIRECTION('',(0.,0.,1.));
#1546=DIRECTION('center_axis',(0.707106781186548,0.707106781186548,0.));
#1547=DIRECTION('ref_axis',(0.707106781186548,-0.707106781186548,0.));
#1548=DIRECTION('',(0.,0.,-1.));
#1549=DIRECTION('',(-0.707106781186547,0.707106781186547,0.));
#1550=DIRECTION('',(0.,0.,-1.));
#1551=DIRECTION('center_axis',(0.,0.,-1.));
#1552=DIRECTION('ref_axis',(1.,0.,0.));
#1553=DIRECTION('',(0.,0.,-1.));
#1554=DIRECTION('center_axis',(0.,0.,1.));
#1555=DIRECTION('ref_axis',(1.,0.,0.));
#1556=DIRECTION('center_axis',(-0.707106781186547,0.707106781186548,0.));
#1557=DIRECTION('ref_axis',(0.707106781186548,0.707106781186547,0.));
#1558=DIRECTION('',(0.,0.,-1.));
#1559=DIRECTION('',(0.707106781186548,0.707106781186547,0.));
#1560=DIRECTION('center_axis',(0.,0.,-1.));
#1561=DIRECTION('ref_axis',(1.,0.,0.));
#1562=DIRECTION('center_axis',(0.,0.,1.));
#1563=DIRECTION('ref_axis',(1.,0.,0.));
#1564=DIRECTION('center_axis',(0.,0.,1.));
#1565=DIRECTION('ref_axis',(1.,0.,0.));
#1566=DIRECTION('center_axis',(-0.707106781186548,-0.707106781186548,0.));
#1567=DIRECTION('ref_axis',(-0.707106781186548,0.707106781186548,0.));
#1568=DIRECTION('',(0.,0.,-1.));
#1569=DIRECTION('',(-0.707106781186548,0.707106781186548,0.));
#1570=DIRECTION('',(0.,0.,-1.));
#1571=DIRECTION('center_axis',(0.,0.,-1.));
#1572=DIRECTION('ref_axis',(1.,0.,0.));
#1573=DIRECTION('center_axis',(0.,0.,1.));
#1574=DIRECTION('ref_axis',(1.,0.,0.));
#1575=DIRECTION('',(0.,0.,-1.));
#1576=DIRECTION('center_axis',(0.,0.,-1.));
#1577=DIRECTION('ref_axis',(1.,0.,0.));
#1578=DIRECTION('',(0.,0.,-1.));
#1579=DIRECTION('center_axis',(0.,0.,1.));
#1580=DIRECTION('ref_axis',(1.,0.,0.));
#1581=DIRECTION('center_axis',(0.707106781186547,-0.707106781186548,0.));
#1582=DIRECTION('ref_axis',(-0.707106781186548,-0.707106781186547,0.));
#1583=DIRECTION('',(0.707106781186548,0.707106781186547,0.));
#1584=DIRECTION('center_axis',(0.,0.,1.));
#1585=DIRECTION('ref_axis',(1.,0.,0.));
#1586=CARTESIAN_POINT('',(0.,0.,0.));
#1587=CARTESIAN_POINT('Origin',(0.,0.,2.));
#1588=CARTESIAN_POINT('',(-6.27435255624037,-2.34999999999999,5.55111512312578E-16));
#1589=CARTESIAN_POINT('',(-6.62495283002075,-0.999999999999992,5.55111512312578E-16));
#1590=CARTESIAN_POINT('Origin',(0.,0.,5.55111512312578E-16));
#1591=CARTESIAN_POINT('',(-6.62495283002075,-0.999999999999992,2.));
#1592=CARTESIAN_POINT('',(-6.62495283002075,-0.999999999999992,2.));
#1593=CARTESIAN_POINT('',(-6.27435255624037,-2.34999999999999,2.));
#1594=CARTESIAN_POINT('Origin',(0.,0.,2.));
#1595=CARTESIAN_POINT('',(-6.27435255624037,-2.34999999999999,2.));
#1596=CARTESIAN_POINT('Origin',(-7.89999982342124,-0.999999999999992,2.));
#1597=CARTESIAN_POINT('',(-7.89999982342124,-0.999999999999992,5.55111512312578E-16));
#1598=CARTESIAN_POINT('',(-7.85608805077071,-0.999999999999992,5.55111512312578E-16));
#1599=CARTESIAN_POINT('',(-7.89999982342124,-0.999999999999992,2.));
#1600=CARTESIAN_POINT('',(-7.89999982342124,-0.999999999999992,2.));
#1601=CARTESIAN_POINT('',(-3.94999991171062,-0.999999999999992,2.));
#1602=CARTESIAN_POINT('Origin',(-7.89999982342124,1.00000000000001,2.));
#1603=CARTESIAN_POINT('',(-7.89999982342124,1.00000000000001,5.55111512312578E-16));
#1604=CARTESIAN_POINT('',(-7.89999982342124,0.500000000000008,5.55111512312578E-16));
#1605=CARTESIAN_POINT('',(-7.89999982342124,1.00000000000001,2.));
#1606=CARTESIAN_POINT('',(-7.89999982342124,1.00000000000001,2.));
#1607=CARTESIAN_POINT('',(-7.89999982342124,0.500000000000005,2.));
#1608=CARTESIAN_POINT('Origin',(-6.62495283002075,1.00000000000001,2.));
#1609=CARTESIAN_POINT('',(-6.62495283002075,1.00000000000001,5.55111512312578E-16));
#1610=CARTESIAN_POINT('',(-7.21856455407047,1.00000000000001,5.55111512312578E-16));
#1611=CARTESIAN_POINT('',(-6.62495283002075,1.00000000000001,2.));
#1612=CARTESIAN_POINT('',(-6.62495283002075,1.00000000000001,2.));
#1613=CARTESIAN_POINT('',(-3.31247641501038,1.00000000000001,2.));
#1614=CARTESIAN_POINT('Origin',(0.,0.,2.));
#1615=CARTESIAN_POINT('',(-6.27435255624036,2.35000000000001,5.55111512312578E-16));
#1616=CARTESIAN_POINT('Origin',(0.,0.,5.55111512312578E-16));
#1617=CARTESIAN_POINT('',(-6.27435255624036,2.35000000000001,2.));
#1618=CARTESIAN_POINT('',(-6.27435255624036,2.35000000000001,2.));
#1619=CARTESIAN_POINT('Origin',(0.,0.,2.));
#1620=CARTESIAN_POINT('Origin',(-9.04986187739901,2.35000000000001,2.));
#1621=CARTESIAN_POINT('',(-9.04986187739901,2.35000000000001,5.55111512312578E-16));
#1622=CARTESIAN_POINT('',(-8.4310190777596,2.35000000000001,5.55111512312578E-16));
#1623=CARTESIAN_POINT('',(-9.04986187739901,2.35000000000001,2.));
#1624=CARTESIAN_POINT('',(-9.04986187739901,2.35000000000001,2.));
#1625=CARTESIAN_POINT('',(-4.52493093869951,2.35000000000001,2.));
#1626=CARTESIAN_POINT('Origin',(-6.27435255624037,-2.34999999999999,2.));
#1627=CARTESIAN_POINT('',(-9.04986187739901,-2.34999999999999,5.55111512312578E-16));
#1628=CARTESIAN_POINT('',(-7.04326441718027,-2.34999999999999,5.55111512312578E-16));
#1629=CARTESIAN_POINT('',(-9.04986187739901,-2.34999999999999,2.));
#1630=CARTESIAN_POINT('',(-3.13717627812018,-2.34999999999999,2.));
#1631=CARTESIAN_POINT('',(-9.04986187739901,-2.34999999999999,2.));
#1632=CARTESIAN_POINT('Origin',(-7.81217627812018,7.91033905045424E-15,
5.55111512312578E-16));
#1633=CARTESIAN_POINT('Origin',(0.,0.,5.55111512312578E-16));
#1634=CARTESIAN_POINT('Origin',(6.01006415056914,-7.16251554316245,4.5));
#1635=CARTESIAN_POINT('',(8.03484512108175,-9.57555553898723,4.5));
#1636=CARTESIAN_POINT('',(6.01006415056914,-7.16251554316245,4.5));
#1637=CARTESIAN_POINT('',(5.27932891820417,-6.29165920475632,4.5));
#1638=CARTESIAN_POINT('',(8.03484512108175,-9.57555553898723,3.5));
#1639=CARTESIAN_POINT('',(8.03484512108175,-9.57555553898723,4.5));
#1640=CARTESIAN_POINT('',(6.01006415056914,-7.16251554316245,3.5));
#1641=CARTESIAN_POINT('',(0.,0.,3.5));
#1642=CARTESIAN_POINT('',(6.01006415056914,-7.16251554316245,4.5));
#1643=CARTESIAN_POINT('Origin',(7.16970545438808,-10.2394005536124,4.5));
#1644=CARTESIAN_POINT('',(5.36293967988228,-7.65907161410207,4.5));
#1645=CARTESIAN_POINT('',(7.16970545438808,-10.2394005536124,4.5));
#1646=CARTESIAN_POINT('',(5.75496151668256,-8.21893681892777,4.5));
#1647=CARTESIAN_POINT('',(5.36293967988228,-7.65907161410207,3.5));
#1648=CARTESIAN_POINT('',(5.36293967988228,-7.65907161410207,4.5));
#1649=CARTESIAN_POINT('',(7.16970545438808,-10.2394005536124,3.5));
#1650=CARTESIAN_POINT('',(-2.4980018054066E-15,7.7715611723761E-15,3.5));
#1651=CARTESIAN_POINT('',(7.16970545438808,-10.2394005536124,4.5));
#1652=CARTESIAN_POINT('Origin',(6.69889240048201,-8.70095804838742,3.5));
#1653=CARTESIAN_POINT('Origin',(-2.4980018054066E-15,7.7715611723761E-15,
3.5));
#1654=CARTESIAN_POINT('Origin',(0.,0.,3.5));
#1655=CARTESIAN_POINT('Origin',(-1.11022302462516E-15,-9.23752615051316,
4.5));
#1656=CARTESIAN_POINT('',(6.61144840409422,-6.61144840409422,4.5));
#1657=CARTESIAN_POINT('Origin',(0.,0.,4.5));
#1658=CARTESIAN_POINT('',(8.83883476483184,-8.83883476483184,4.5));
#1659=CARTESIAN_POINT('',(8.83883476483184,-8.83883476483184,4.5));
#1660=CARTESIAN_POINT('Origin',(0.,0.,4.5));
#1661=CARTESIAN_POINT('Origin',(-1.11022302462516E-15,-9.23752615051316,
4.5));
#1662=CARTESIAN_POINT('',(-8.1033983121665,-9.5176118745396,4.5));
#1663=CARTESIAN_POINT('Origin',(0.,0.,4.5));
#1664=CARTESIAN_POINT('',(-5.86641966966158,-7.28063323203467,4.5));
#1665=CARTESIAN_POINT('',(-4.88903798186581,-6.3032515442389,4.5));
#1666=CARTESIAN_POINT('Origin',(0.,0.,4.5));
#1667=CARTESIAN_POINT('Origin',(5.90434162290767,-5.90434162290767,4.5));
#1668=CARTESIAN_POINT('',(6.61144840409422,-6.61144840409422,2.));
#1669=CARTESIAN_POINT('',(5.90434162290767,-5.90434162290767,2.));
#1670=CARTESIAN_POINT('',(2.95217081145384,-2.95217081145384,2.));
#1671=CARTESIAN_POINT('',(6.61144840409422,-6.61144840409422,5.55111512312578E-16));
#1672=CARTESIAN_POINT('',(6.61144840409422,-6.61144840409422,4.5));
#1673=CARTESIAN_POINT('',(5.90434162290767,-5.90434162290767,5.55111512312578E-16));
#1674=CARTESIAN_POINT('',(8.83883476483184,-8.83883476483184,5.55111512312578E-16));
#1675=CARTESIAN_POINT('',(5.90434162290767,-5.90434162290767,4.5));
#1676=CARTESIAN_POINT('Origin',(0.,0.,4.5));
#1677=CARTESIAN_POINT('',(2.9,-7.83022988168292,2.));
#1678=CARTESIAN_POINT('Origin',(0.,0.,2.));
#1679=CARTESIAN_POINT('',(2.9,-7.83022988168292,5.55111512312578E-16));
#1680=CARTESIAN_POINT('Origin',(0.,0.,5.55111512312578E-16));
#1681=CARTESIAN_POINT('',(2.9,-7.83022988168292,4.5));
#1682=CARTESIAN_POINT('Origin',(2.9,-8.88889756944021,4.5));
#1683=CARTESIAN_POINT('',(2.9,-8.88889756944021,2.));
#1684=CARTESIAN_POINT('',(2.9,-4.4444487847201,2.));
#1685=CARTESIAN_POINT('',(2.9,-8.88889756944021,5.55111512312578E-16));
#1686=CARTESIAN_POINT('',(2.9,13.4407031066087,5.55111512312578E-16));
#1687=CARTESIAN_POINT('',(2.9,-8.88889756944021,4.5));
#1688=CARTESIAN_POINT('Origin',(4.75572420204711,-7.39661959617394,5.55111512312578E-16));
#1689=CARTESIAN_POINT('Origin',(0.,0.,5.55111512312578E-16));
#1690=CARTESIAN_POINT('Origin',(0.,0.,2.));
#1691=CARTESIAN_POINT('',(-6.61144840409422,6.61144840409422,2.));
#1692=CARTESIAN_POINT('Origin',(0.,0.,2.));
#1693=CARTESIAN_POINT('',(-5.90434162290768,5.90434162290767,2.));
#1694=CARTESIAN_POINT('',(-2.95217081145384,2.95217081145384,2.));
#1695=CARTESIAN_POINT('',(-2.9,7.83022988168292,2.));
#1696=CARTESIAN_POINT('Origin',(0.,0.,2.));
#1697=CARTESIAN_POINT('',(-2.9,8.88889756944021,2.));
#1698=CARTESIAN_POINT('',(-2.9,4.4444487847201,2.));
#1699=CARTESIAN_POINT('',(2.9,8.88889756944021,2.));
#1700=CARTESIAN_POINT('Origin',(0.,0.,2.));
#1701=CARTESIAN_POINT('',(2.9,7.83022988168292,2.));
#1702=CARTESIAN_POINT('',(2.9,3.91511494084146,2.));
#1703=CARTESIAN_POINT('',(5.90434162290768,5.90434162290767,2.));
#1704=CARTESIAN_POINT('Origin',(0.,0.,2.));
#1705=CARTESIAN_POINT('',(6.61144840409422,6.61144840409422,2.));
#1706=CARTESIAN_POINT('',(4.41941738241592,4.41941738241592,2.));
#1707=CARTESIAN_POINT('',(9.04986187739901,2.34999999999999,2.));
#1708=CARTESIAN_POINT('Origin',(0.,0.,2.));
#1709=CARTESIAN_POINT('',(6.27435255624037,2.35,2.));
#1710=CARTESIAN_POINT('',(3.13717627812018,2.34999999999999,2.));
#1711=CARTESIAN_POINT('',(6.62495283002075,0.999999999999993,2.));
#1712=CARTESIAN_POINT('Origin',(0.,0.,2.));
#1713=CARTESIAN_POINT('',(7.89999982342124,0.999999999999993,2.));
#1714=CARTESIAN_POINT('',(3.94999991171062,0.999999999999992,2.));
#1715=CARTESIAN_POINT('',(7.89999982342124,-1.00000000000001,2.));
#1716=CARTESIAN_POINT('',(7.89999982342124,-0.500000000000004,2.));
#1717=CARTESIAN_POINT('',(6.62495283002075,-1.00000000000001,2.));
#1718=CARTESIAN_POINT('',(3.31247641501038,-1.00000000000001,2.));
#1719=CARTESIAN_POINT('',(6.27435255624036,-2.35000000000001,2.));
#1720=CARTESIAN_POINT('Origin',(0.,0.,2.));
#1721=CARTESIAN_POINT('',(9.04986187739901,-2.35000000000001,2.));
#1722=CARTESIAN_POINT('',(4.52493093869951,-2.35000000000001,2.));
#1723=CARTESIAN_POINT('Origin',(0.,0.,2.));
#1724=CARTESIAN_POINT('',(-2.9,-8.88889756944021,2.));
#1725=CARTESIAN_POINT('Origin',(0.,0.,2.));
#1726=CARTESIAN_POINT('',(-2.9,-7.83022988168292,2.));
#1727=CARTESIAN_POINT('',(-2.9,-3.91511494084146,2.));
#1728=CARTESIAN_POINT('',(-5.90434162290768,-5.90434162290767,2.));
#1729=CARTESIAN_POINT('Origin',(0.,0.,2.));
#1730=CARTESIAN_POINT('',(-6.61144840409422,-6.61144840409422,2.));
#1731=CARTESIAN_POINT('',(-4.41941738241592,-4.41941738241592,2.));
#1732=CARTESIAN_POINT('Origin',(0.,0.,2.));
#1733=CARTESIAN_POINT('',(-4.255,5.21087213037199E-16,2.));
#1734=CARTESIAN_POINT('Origin',(0.,0.,2.));
#1735=CARTESIAN_POINT('Origin',(0.,0.,4.5));
#1736=CARTESIAN_POINT('',(-2.9,-7.83022988168292,5.55111512312578E-16));
#1737=CARTESIAN_POINT('',(-2.9,-7.83022988168292,4.5));
#1738=CARTESIAN_POINT('',(-5.90434162290768,-5.90434162290767,5.55111512312578E-16));
#1739=CARTESIAN_POINT('Origin',(0.,0.,5.55111512312578E-16));
#1740=CARTESIAN_POINT('',(-5.90434162290768,-5.90434162290767,4.5));
#1741=CARTESIAN_POINT('Origin',(-2.9,-7.83022988168292,4.5));
#1742=CARTESIAN_POINT('',(-2.9,-8.88889756944021,5.55111512312578E-16));
#1743=CARTESIAN_POINT('',(-2.9,-8.88889756944021,4.5));
#1744=CARTESIAN_POINT('',(-2.9,-13.4407031066087,5.55111512312578E-16));
#1745=CARTESIAN_POINT('Origin',(-5.86641966966158,-7.28063323203467,4.5));
#1746=CARTESIAN_POINT('',(-8.1033983121665,-9.5176118745396,5.55111512312578E-16));
#1747=CARTESIAN_POINT('',(-8.1033983121665,-9.5176118745396,4.5));
#1748=CARTESIAN_POINT('',(-5.86641966966158,-7.28063323203467,5.55111512312578E-16));
#1749=CARTESIAN_POINT('',(-8.1033983121665,-9.5176118745396,5.55111512312578E-16));
#1750=CARTESIAN_POINT('',(-5.86641966966158,-7.28063323203467,4.5));
#1751=CARTESIAN_POINT('Origin',(-5.86941738241592,-7.71097674872363,5.55111512312578E-16));
#1752=CARTESIAN_POINT('',(-8.83883476483184,-8.83883476483184,5.55111512312578E-16));
#1753=CARTESIAN_POINT('Origin',(0.,0.,5.55111512312578E-16));
#1754=CARTESIAN_POINT('',(-8.83883476483184,-8.83883476483184,5.55111512312578E-16));
#1755=CARTESIAN_POINT('Origin',(0.,0.,5.55111512312578E-16));
#1756=CARTESIAN_POINT('Origin',(0.,0.,4.5));
#1757=CARTESIAN_POINT('',(9.04986187739901,-2.35000000000001,5.55111512312578E-16));
#1758=CARTESIAN_POINT('',(9.04986187739901,-2.35000000000001,2.));
#1759=CARTESIAN_POINT('',(9.04986187739901,2.34999999999999,5.55111512312578E-16));
#1760=CARTESIAN_POINT('Origin',(0.,0.,5.55111512312578E-16));
#1761=CARTESIAN_POINT('',(9.04986187739901,2.34999999999999,2.));
#1762=CARTESIAN_POINT('',(6.61144840409422,6.61144840409422,5.));
#1763=CARTESIAN_POINT('',(6.61144840409422,6.61144840409422,4.5));
#1764=CARTESIAN_POINT('',(6.61144840409422,-6.61144840409422,5.));
#1765=CARTESIAN_POINT('Origin',(0.,0.,5.));
#1766=CARTESIAN_POINT('',(6.61144840409422,-6.61144840409422,4.5));
#1767=CARTESIAN_POINT('Origin',(0.,0.,4.5));
#1768=CARTESIAN_POINT('',(-6.61144840409422,-6.61144840409422,5.));
#1769=CARTESIAN_POINT('',(-6.61144840409422,-6.61144840409422,4.5));
#1770=CARTESIAN_POINT('',(-6.61144840409422,6.61144840409422,5.));
#1771=CARTESIAN_POINT('Origin',(0.,0.,5.));
#1772=CARTESIAN_POINT('',(-6.61144840409422,6.61144840409422,4.5));
#1773=CARTESIAN_POINT('',(-6.61144840409422,6.61144840409422,4.5));
#1774=CARTESIAN_POINT('',(-6.01006415056914,7.16251554316244,4.5));
#1775=CARTESIAN_POINT('Origin',(0.,0.,4.5));
#1776=CARTESIAN_POINT('',(-6.01006415056914,7.16251554316244,3.5));
#1777=CARTESIAN_POINT('',(-6.01006415056914,7.16251554316244,4.5));
#1778=CARTESIAN_POINT('',(-5.36293967988228,7.65907161410207,3.5));
#1779=CARTESIAN_POINT('Origin',(0.,0.,3.5));
#1780=CARTESIAN_POINT('',(-5.36293967988228,7.65907161410207,4.5));
#1781=CARTESIAN_POINT('',(-5.36293967988228,7.65907161410207,4.5));
#1782=CARTESIAN_POINT('',(5.86641966966158,7.28063323203467,4.5));
#1783=CARTESIAN_POINT('Origin',(0.,0.,4.5));
#1784=CARTESIAN_POINT('',(5.86641966966158,7.28063323203467,5.55111512312578E-16));
#1785=CARTESIAN_POINT('',(5.86641966966158,7.28063323203467,4.5));
#1786=CARTESIAN_POINT('',(2.9,8.88889756944021,5.55111512312578E-16));
#1787=CARTESIAN_POINT('Origin',(0.,0.,5.55111512312578E-16));
#1788=CARTESIAN_POINT('',(2.9,8.88889756944021,4.5));
#1789=CARTESIAN_POINT('',(-2.9,8.88889756944021,5.55111512312578E-16));
#1790=CARTESIAN_POINT('',(-2.9,8.88889756944021,4.5));
#1791=CARTESIAN_POINT('',(-6.61144840409422,6.61144840409422,5.55111512312578E-16));
#1792=CARTESIAN_POINT('Origin',(0.,0.,5.55111512312578E-16));
#1793=CARTESIAN_POINT('',(-6.61144840409422,6.61144840409422,4.5));
#1794=CARTESIAN_POINT('Origin',(0.,0.,2.));
#1795=CARTESIAN_POINT('',(6.27435255624037,2.35,5.55111512312578E-16));
#1796=CARTESIAN_POINT('',(6.62495283002075,0.999999999999993,5.55111512312578E-16));
#1797=CARTESIAN_POINT('Origin',(0.,0.,5.55111512312578E-16));
#1798=CARTESIAN_POINT('',(6.62495283002075,0.999999999999993,2.));
#1799=CARTESIAN_POINT('',(6.27435255624037,2.35,2.));
#1800=CARTESIAN_POINT('Origin',(7.89999982342124,0.999999999999993,2.));
#1801=CARTESIAN_POINT('',(7.89999982342124,0.999999999999993,5.55111512312578E-16));
#1802=CARTESIAN_POINT('',(7.85608805077071,0.999999999999993,5.55111512312578E-16));
#1803=CARTESIAN_POINT('',(7.89999982342124,0.999999999999993,2.));
#1804=CARTESIAN_POINT('Origin',(7.89999982342124,-1.00000000000001,2.));
#1805=CARTESIAN_POINT('',(7.89999982342124,-1.00000000000001,5.55111512312578E-16));
#1806=CARTESIAN_POINT('',(7.89999982342124,-0.500000000000007,5.55111512312578E-16));
#1807=CARTESIAN_POINT('',(7.89999982342124,-1.00000000000001,2.));
#1808=CARTESIAN_POINT('Origin',(6.62495283002075,-1.00000000000001,2.));
#1809=CARTESIAN_POINT('',(6.62495283002075,-1.00000000000001,5.55111512312578E-16));
#1810=CARTESIAN_POINT('',(7.21856455407047,-1.00000000000001,5.55111512312578E-16));
#1811=CARTESIAN_POINT('',(6.62495283002075,-1.00000000000001,2.));
#1812=CARTESIAN_POINT('Origin',(0.,0.,2.));
#1813=CARTESIAN_POINT('',(6.27435255624036,-2.35000000000001,5.55111512312578E-16));
#1814=CARTESIAN_POINT('Origin',(0.,0.,5.55111512312578E-16));
#1815=CARTESIAN_POINT('',(6.27435255624036,-2.35000000000001,2.));
#1816=CARTESIAN_POINT('Origin',(9.04986187739901,-2.35000000000001,2.));
#1817=CARTESIAN_POINT('',(8.4310190777596,-2.35000000000001,5.55111512312578E-16));
#1818=CARTESIAN_POINT('Origin',(6.27435255624037,2.34999999999999,2.));
#1819=CARTESIAN_POINT('',(7.04326441718027,2.34999999999999,5.55111512312578E-16));
#1820=CARTESIAN_POINT('Origin',(7.81217627812018,-6.66133814775094E-15,
5.55111512312578E-16));
#1821=CARTESIAN_POINT('Origin',(-6.01006415056914,7.16251554316244,4.5));
#1822=CARTESIAN_POINT('',(-8.03484512108175,9.57555553898723,4.5));
#1823=CARTESIAN_POINT('',(-5.27932891820417,6.29165920475632,4.5));
#1824=CARTESIAN_POINT('',(-8.03484512108175,9.57555553898723,3.5));
#1825=CARTESIAN_POINT('',(-8.03484512108175,9.57555553898723,4.5));
#1826=CARTESIAN_POINT('',(0.,0.,3.5));
#1827=CARTESIAN_POINT('Origin',(-7.16970545438808,10.2394005536124,4.5));
#1828=CARTESIAN_POINT('',(-7.16970545438808,10.2394005536124,4.5));
#1829=CARTESIAN_POINT('',(-5.75496151668256,8.21893681892777,4.5));
#1830=CARTESIAN_POINT('',(-7.16970545438808,10.2394005536124,3.5));
#1831=CARTESIAN_POINT('',(2.4980018054066E-15,-7.7715611723761E-15,3.5));
#1832=CARTESIAN_POINT('',(-7.16970545438808,10.2394005536124,4.5));
#1833=CARTESIAN_POINT('Origin',(-6.69889240048202,8.70095804838742,3.5));
#1834=CARTESIAN_POINT('Origin',(2.4980018054066E-15,-7.7715611723761E-15,
3.5));
#1835=CARTESIAN_POINT('Origin',(-1.11022302462516E-15,9.23752615051316,
4.5));
#1836=CARTESIAN_POINT('',(-8.83883476483185,8.83883476483185,4.5));
#1837=CARTESIAN_POINT('',(8.83883476483184,-8.83883476483184,4.5));
#1838=CARTESIAN_POINT('Origin',(0.,0.,4.5));
#1839=CARTESIAN_POINT('Origin',(-1.11022302462516E-15,9.23752615051316,
4.5));
#1840=CARTESIAN_POINT('',(8.1033983121665,9.5176118745396,4.5));
#1841=CARTESIAN_POINT('Origin',(0.,0.,4.5));
#1842=CARTESIAN_POINT('',(4.88903798186581,6.3032515442389,4.5));
#1843=CARTESIAN_POINT('Origin',(-2.9,8.88889756944021,4.5));
#1844=CARTESIAN_POINT('',(-2.9,7.83022988168292,5.55111512312578E-16));
#1845=CARTESIAN_POINT('',(-2.9,7.83022988168292,4.5));
#1846=CARTESIAN_POINT('',(-2.9,-13.4407031066087,5.55111512312578E-16));
#1847=CARTESIAN_POINT('Origin',(0.,0.,4.5));
#1848=CARTESIAN_POINT('',(-5.90434162290768,5.90434162290767,5.55111512312578E-16));
#1849=CARTESIAN_POINT('',(-5.90434162290768,5.90434162290767,4.5));
#1850=CARTESIAN_POINT('Origin',(0.,0.,5.55111512312578E-16));
#1851=CARTESIAN_POINT('Origin',(-5.90434162290768,5.90434162290767,4.5));
#1852=CARTESIAN_POINT('',(-8.83883476483184,8.83883476483184,5.55111512312578E-16));
#1853=CARTESIAN_POINT('Origin',(-4.75572420204711,7.39661959617394,5.55111512312578E-16));
#1854=CARTESIAN_POINT('Origin',(5.86641966966158,7.28063323203468,4.5));
#1855=CARTESIAN_POINT('',(8.1033983121665,9.5176118745396,5.55111512312578E-16));
#1856=CARTESIAN_POINT('',(8.1033983121665,9.5176118745396,4.5));
#1857=CARTESIAN_POINT('',(8.1033983121665,9.5176118745396,5.55111512312578E-16));
#1858=CARTESIAN_POINT('Origin',(2.9,7.83022988168292,4.5));
#1859=CARTESIAN_POINT('',(2.9,7.83022988168292,5.55111512312578E-16));
#1860=CARTESIAN_POINT('',(2.9,13.4407031066087,5.55111512312578E-16));
#1861=CARTESIAN_POINT('',(2.9,7.83022988168292,4.5));
#1862=CARTESIAN_POINT('Origin',(0.,0.,4.5));
#1863=CARTESIAN_POINT('',(5.90434162290768,5.90434162290767,5.55111512312578E-16));
#1864=CARTESIAN_POINT('Origin',(0.,0.,5.55111512312578E-16));
#1865=CARTESIAN_POINT('',(5.90434162290768,5.90434162290767,4.5));
#1866=CARTESIAN_POINT('Origin',(5.86941738241592,7.71097674872363,5.55111512312578E-16));
#1867=CARTESIAN_POINT('',(8.83883476483184,8.83883476483184,5.55111512312578E-16));
#1868=CARTESIAN_POINT('Origin',(0.,0.,5.55111512312578E-16));
#1869=CARTESIAN_POINT('',(8.83883476483184,8.83883476483184,5.55111512312578E-16));
#1870=CARTESIAN_POINT('Origin',(0.,0.,5.));
#1871=CARTESIAN_POINT('',(5.97505230102633,5.97505230102633,5.));
#1872=CARTESIAN_POINT('',(4.41941738241592,4.41941738241592,5.));
#1873=CARTESIAN_POINT('',(-5.97505230102633,5.97505230102633,5.));
#1874=CARTESIAN_POINT('Origin',(0.,0.,5.));
#1875=CARTESIAN_POINT('',(-2.98752615051316,2.98752615051316,5.));
#1876=CARTESIAN_POINT('',(-5.97505230102633,-5.97505230102632,5.));
#1877=CARTESIAN_POINT('',(-4.41941738241592,-4.41941738241592,5.));
#1878=CARTESIAN_POINT('',(5.97505230102633,-5.97505230102633,5.));
#1879=CARTESIAN_POINT('Origin',(0.,0.,5.));
#1880=CARTESIAN_POINT('',(2.98752615051316,-2.98752615051316,5.));
#1881=CARTESIAN_POINT('',(-4.255,5.21087213037199E-16,5.));
#1882=CARTESIAN_POINT('Origin',(0.,0.,5.));
#1883=CARTESIAN_POINT('Origin',(0.,0.,4.5));
#1884=CARTESIAN_POINT('',(-4.255,5.21087213037199E-16,4.5));
#1885=CARTESIAN_POINT('Origin',(5.97505230102633,-5.97505230102633,6.));
#1886=CARTESIAN_POINT('',(5.97505230102633,-5.97505230102633,6.));
#1887=CARTESIAN_POINT('',(5.97505230102633,-5.97505230102633,6.));
#1888=CARTESIAN_POINT('',(8.83883476483184,-8.83883476483184,6.));
#1889=CARTESIAN_POINT('',(8.83883476483184,-8.83883476483184,6.));
#1890=CARTESIAN_POINT('',(8.83883476483184,-8.83883476483184,6.));
#1891=CARTESIAN_POINT('Origin',(0.,0.,6.));
#1892=CARTESIAN_POINT('',(-5.97505230102633,-5.97505230102632,6.));
#1893=CARTESIAN_POINT('',(-5.97505230102633,-5.97505230102632,6.));
#1894=CARTESIAN_POINT('Origin',(0.,0.,6.));
#1895=CARTESIAN_POINT('Origin',(-8.83883476483185,-8.83883476483184,6.));
#1896=CARTESIAN_POINT('',(-8.83883476483185,-8.83883476483184,6.));
#1897=CARTESIAN_POINT('',(-8.83883476483185,-8.83883476483184,6.));
#1898=CARTESIAN_POINT('',(-8.83883476483185,-8.83883476483184,6.));
#1899=CARTESIAN_POINT('Origin',(0.,0.,6.));
#1900=CARTESIAN_POINT('Origin',(0.,0.,6.));
#1901=CARTESIAN_POINT('Origin',(-1.11022302462516E-15,-9.23752615051316,
6.));
#1902=CARTESIAN_POINT('Origin',(-5.97505230102632,5.97505230102632,6.));
#1903=CARTESIAN_POINT('',(-5.97505230102633,5.97505230102633,6.));
#1904=CARTESIAN_POINT('',(-5.97505230102633,5.97505230102633,6.));
#1905=CARTESIAN_POINT('',(-8.83883476483185,8.83883476483185,6.));
#1906=CARTESIAN_POINT('',(8.83883476483184,-8.83883476483184,6.));
#1907=CARTESIAN_POINT('',(-8.83883476483185,8.83883476483185,6.));
#1908=CARTESIAN_POINT('Origin',(0.,0.,6.));
#1909=CARTESIAN_POINT('',(8.83883476483184,8.83883476483184,6.));
#1910=CARTESIAN_POINT('Origin',(0.,0.,6.));
#1911=CARTESIAN_POINT('',(8.83883476483184,8.83883476483184,6.));
#1912=CARTESIAN_POINT('Origin',(0.,0.,6.));
#1913=CARTESIAN_POINT('',(5.97505230102633,5.97505230102633,6.));
#1914=CARTESIAN_POINT('',(5.97505230102633,5.97505230102633,6.));
#1915=CARTESIAN_POINT('Origin',(0.,0.,6.));
#1916=CARTESIAN_POINT('Origin',(8.83883476483184,8.83883476483184,6.));
#1917=CARTESIAN_POINT('',(-8.83883476483185,-8.83883476483184,6.));
#1918=CARTESIAN_POINT('Origin',(-1.11022302462516E-15,9.23752615051316,
6.));
#1919=UNCERTAINTY_MEASURE_WITH_UNIT(LENGTH_MEASURE(0.01),#1923,
'DISTANCE_ACCURACY_VALUE',
'Maximum model space distance between geometric entities at asserted c
onnectivities');
#1920=UNCERTAINTY_MEASURE_WITH_UNIT(LENGTH_MEASURE(0.01),#1923,
'DISTANCE_ACCURACY_VALUE',
'Maximum model space distance between geometric entities at asserted c
onnectivities');
#1921=(
GEOMETRIC_REPRESENTATION_CONTEXT(3)
GLOBAL_UNCERTAINTY_ASSIGNED_CONTEXT((#1919))
GLOBAL_UNIT_ASSIGNED_CONTEXT((#1923,#1925,#1926))
REPRESENTATION_CONTEXT('','3D')
);
#1922=(
GEOMETRIC_REPRESENTATION_CONTEXT(3)
GLOBAL_UNCERTAINTY_ASSIGNED_CONTEXT((#1920))
GLOBAL_UNIT_ASSIGNED_CONTEXT((#1923,#1925,#1926))
REPRESENTATION_CONTEXT('','3D')
);
#1923=(
LENGTH_UNIT()
NAMED_UNIT(*)
SI_UNIT(.MILLI.,.METRE.)
);
#1924=(
LENGTH_UNIT()
NAMED_UNIT(*)
SI_UNIT($,.METRE.)
);
#1925=(
NAMED_UNIT(*)
PLANE_ANGLE_UNIT()
SI_UNIT($,.RADIAN.)
);
#1926=(
NAMED_UNIT(*)
SI_UNIT($,.STERADIAN.)
SOLID_ANGLE_UNIT()
);
#1927=SHAPE_DEFINITION_REPRESENTATION(#1928,#1929);
#1928=PRODUCT_DEFINITION_SHAPE('',$,#1931);
#1929=SHAPE_REPRESENTATION('',(#1143),#1921);
#1930=PRODUCT_DEFINITION_CONTEXT('part definition',#1935,'design');
#1931=PRODUCT_DEFINITION('PHW Wheel Template','PHW Wheel Template v1',#1932,
#1930);
#1932=PRODUCT_DEFINITION_FORMATION('',$,#1937);
#1933=PRODUCT_RELATED_PRODUCT_CATEGORY('PHW Wheel Template v1',
'PHW Wheel Template v1',(#1937));
#1934=APPLICATION_PROTOCOL_DEFINITION('international standard',
'automotive_design',2009,#1935);
#1935=APPLICATION_CONTEXT(
'Core Data for Automotive Mechanical Design Process');
#1936=PRODUCT_CONTEXT('part definition',#1935,'mechanical');
#1937=PRODUCT('PHW Wheel Template','PHW Wheel Template v1',$,(#1936));
#1938=PRESENTATION_STYLE_ASSIGNMENT((#1940));
#1939=PRESENTATION_STYLE_ASSIGNMENT((#1941));
#1940=SURFACE_STYLE_USAGE(.BOTH.,#1942);
#1941=SURFACE_STYLE_USAGE(.BOTH.,#1943);
#1942=SURFACE_SIDE_STYLE('',(#1944));
#1943=SURFACE_SIDE_STYLE('',(#1945));
#1944=SURFACE_STYLE_FILL_AREA(#1946);
#1945=SURFACE_STYLE_FILL_AREA(#1947);
#1946=FILL_AREA_STYLE('Steel - Satin',(#1948));
#1947=FILL_AREA_STYLE('ABS (White)',(#1949));
#1948=FILL_AREA_STYLE_COLOUR('Steel - Satin',#1950);
#1949=FILL_AREA_STYLE_COLOUR('ABS (White)',#1951);
#1950=COLOUR_RGB('Steel - Satin',0.627450980392157,0.627450980392157,0.627450980392157);
#1951=COLOUR_RGB('ABS (White)',0.964705882352941,0.964705882352941,0.952941176470588);
ENDSEC;
END-ISO-10303-21;
